<svg width="763" height="754" version="1.1" xmlns="http://www.w3.org/2000/svg" desc="Created with imagetracer.js version 1.2.6" ><path fill="rgb(0,0,0)" stroke="rgb(0,0,0)" stroke-width="1" opacity="0" d="M 0 0 L 763 0 L 763 754 L 0 754 L 0 0 Z M 347 20 L 345 22 L 346 24 L 345 26 L 345 37 L 344 38 L 344 64 L 339 64 L 333 61 Q 325 61 321 58 L 306 55 L 298 55 L 297 54 L 270 54 L 255 57 L 244 61 L 225 73 Q 222 72 223 75 Q 216 78 211 84 L 204 92 Q 201 91 202 94 L 196 98 L 188 110 Q 189 112 186 111 L 186 113 L 184 113 L 181 118 Q 182 120 179 119 L 178 123 L 164 142 Q 165 144 162 143 L 159 150 L 156 151 L 156 154 L 128 199 L 128 202 L 106 245 L 89 286 L 70 341 L 58 384 L 56 386 L 56 392 L 54 396 L 47 427 L 45 430 L 45 435 L 40 453 L 36 476 L 34 479 L 34 485 L 25 529 L 22 560 L 21 561 L 21 572 L 20 573 L 20 623 L 21 624 L 21 634 L 22 635 L 24 655 Q 27 662 28 672 L 32 682 L 40 696 L 46 703 Q 45 705 48 704 L 49 707 L 68 721 L 86 729 L 100 732 L 122 733 L 123 734 L 164 733 L 165 732 L 182 731 L 189 729 L 196 729 L 250 716 L 253 714 L 277 708 L 313 695 L 316 695 L 371 674 L 374 674 L 394 665 L 397 665 L 399 663 L 445 644 L 496 618 L 499 615 Q 516 608 530 597 Q 533 598 532 595 L 539 592 Q 541 593 540 590 Q 549 587 555 581 Q 558 582 557 579 L 579 565 L 580 562 L 597 550 Q 599 551 598 549 Q 599 545 603 546 L 605 543 Q 607 544 606 542 L 613 537 L 615 533 L 622 529 L 626 524 L 629 522 L 642 508 L 645 506 L 650 500 Q 649 497 652 498 L 671 472 L 676 459 L 678 457 Q 678 450 681 448 L 681 442 L 683 438 L 682 436 L 682 414 L 679 399 L 671 376 L 665 363 L 677 365 L 684 365 L 685 366 L 708 366 Q 709 363 716 365 L 734 361 L 742 357 Q 744 358 743 356 L 726 343 Q 723 344 724 341 L 718 337 Q 715 338 716 335 L 714 335 L 704 327 Q 701 328 702 325 L 700 325 Q 687 314 671 306 L 652 300 Q 648 301 649 298 L 658 298 L 659 299 L 661 298 L 680 297 L 691 294 L 700 289 L 703 289 L 711 283 L 717 277 L 717 273 L 715 273 L 711 269 L 689 255 Q 686 256 687 253 L 685 253 L 671 245 L 644 235 L 614 229 L 576 229 L 575 230 L 563 231 L 560 227 L 568 227 L 590 222 L 602 217 L 616 207 Q 615 204 618 205 Q 635 188 643 161 L 638 157 L 625 153 L 623 151 L 619 151 L 616 149 L 598 145 L 576 145 L 561 149 L 543 157 L 517 174 Q 514 173 515 176 L 512 176 L 518 162 L 518 154 L 519 153 L 518 134 L 516 131 L 514 120 L 508 101 L 500 80 L 495 72 L 495 69 L 479 40 L 473 42 L 466 48 L 462 49 L 450 66 L 444 78 L 440 90 L 439 101 L 438 102 L 438 119 L 436 119 Q 433 101 424 88 L 414 74 L 398 58 L 398 56 L 393 53 L 374 37 L 347 20 Z " /><path fill="rgb(0,0,0)" stroke="rgb(0,0,0)" stroke-width="1" opacity="0" d="M 617 291 L 625.5 294 L 639 296 Q 640.3 299 636.5 298 L 618 295 L 617 291 Z " /><path fill="rgb(0,0,0)" stroke="rgb(0,0,0)" stroke-width="1" opacity="0" d="M 643 297 L 648 297 L 648 299 L 643 299 L 643 297 Z " /><path fill="rgb(165,200,25)" stroke="rgb(165,200,25)" stroke-width="1" opacity="1" d="M 346 21 Q 381.1 39.7 408 67.5 Q 428.6 88.4 437 121.5 L 434.5 122 Q 393 90 344 65.5 L 344 42.5 L 345 41.5 L 346 21 Z " /><path fill="rgb(165,200,25)" stroke="rgb(165,200,25)" stroke-width="1" opacity="1" d="M 476.5 40 L 479 41.5 Q 494.6 66.4 506 95.5 L 516 128.5 L 519 150.5 L 516 166.5 L 508.5 179 L 492 167 Q 493.1 164.3 490.5 165 L 438 123.5 L 438 104.5 L 441 87.5 Q 447 68.1 458 55 Q 460.7 56.1 460 53.5 L 476.5 40 Z " /><path fill="rgb(165,200,25)" stroke="rgb(165,200,25)" stroke-width="1" opacity="1" d="M 307.5 120 Q 320.4 118.1 324 125.5 Q 328.2 129.3 327 138.5 L 320.5 148 L 302.5 159 L 292.5 161 L 289 158.5 L 288 150.5 Q 292.3 132.8 303.5 122 L 307.5 120 Z " /><path fill="rgb(165,200,25)" stroke="rgb(165,200,25)" stroke-width="1" opacity="1" d="M 578.5 145 L 595.5 145 L 606.5 147 L 643 160 Q 633.2 190.5 611.5 210 Q 591.3 225.3 557.5 227 L 510 181.5 Q 508.9 178.2 511.5 179 Q 537.9 154.9 578.5 145 Z " /><path fill="rgb(165,200,25)" stroke="rgb(165,200,25)" stroke-width="1" opacity="1" d="M 578.5 229 L 608.5 229 Q 610.2 231.8 616.5 230 L 633.5 233 L 653.5 239 Q 690.2 252.3 717 275.5 Q 697 300 650.5 298 L 649.5 297 L 636.5 296 L 612 289 L 583 253 Q 580.3 254.1 581 251.5 L 564 233.5 L 564 231 L 577.5 230 L 578.5 229 Z " /><path fill="rgb(165,200,25)" stroke="rgb(165,200,25)" stroke-width="1" opacity="1" d="M 228.5 233 Q 237.9 233.1 242 238.5 Q 246.3 242.7 245 252.5 L 244 255.5 L 235.5 264 L 219.5 273 L 209.5 274 Q 204.7 272.8 206 265.5 Q 210.3 247.5 220 236 L 228.5 233 Z " /><path fill="rgb(165,200,25)" stroke="rgb(165,200,25)" stroke-width="1" opacity="1" d="M 458.5 242 Q 469.3 241.3 473 247.5 Q 477.9 251.6 476 262.5 L 467.5 272 L 452.5 281 L 446.5 283 L 440.5 283 Q 436.1 281.4 437 274.5 L 440 263.5 L 449 247 L 452 245.5 Q 451.2 242.9 454.5 244 L 458.5 242 Z " /><path fill="rgb(165,200,25)" stroke="rgb(165,200,25)" stroke-width="1" opacity="1" d="M 620 296 L 645.5 299 L 670.5 307 L 691.5 319 L 743 355.5 L 731.5 361 L 719.5 364 L 706.5 365 L 705.5 366 L 686.5 366 L 685.5 365 L 667.5 363 L 662 359.5 L 654 343.5 L 620 298.5 L 620 296 Z " /><path fill="rgb(165,200,25)" stroke="rgb(165,200,25)" stroke-width="1" opacity="1" d="M 375.5 334 Q 387.2 333.3 391 340.5 Q 394.5 344.5 393 353.5 L 388 362 L 367.5 374 L 356 375 L 354 367.5 Q 357.6 347.1 370.5 336 L 375.5 334 Z " /><path fill="rgb(165,200,25)" stroke="rgb(165,200,25)" stroke-width="1" opacity="1" d="M 153.5 336 L 163.5 336 L 171 341.5 L 174 351.5 L 172 358.5 L 165.5 365 L 162.5 367 L 148.5 375 L 139.5 377 L 135 373.5 Q 133.8 365.2 136 360.5 L 143 345.5 L 148.5 339 L 153.5 336 Z " /><path fill="rgb(165,200,25)" stroke="rgb(165,200,25)" stroke-width="1" opacity="1" d="M 586.5 368 Q 596.9 368.1 601 374.5 Q 604.7 378.8 603 388.5 L 597.5 396 L 582.5 406 L 574.5 409 L 567.5 409 Q 563.1 407.4 564 400.5 Q 568.1 381.1 580.5 370 L 586.5 368 Z " /><path fill="rgb(165,200,25)" stroke="rgb(165,200,25)" stroke-width="1" opacity="1" d="M 292.5 426 Q 303.7 425.8 308 432.5 Q 311.7 436.8 310 446.5 L 304.5 454 L 289.5 464 L 281.5 467 L 274.5 467 Q 270.3 465.7 271 459.5 L 278 439.5 L 287.5 428 L 292.5 426 Z " /><path fill="rgb(165,200,25)" stroke="rgb(165,200,25)" stroke-width="1" opacity="1" d="M 91.5 447 L 101.5 447 L 109 452.5 L 111 455.5 L 112 464.5 L 108 473 L 87.5 486 L 76.5 488 L 74 487 Q 72 484 73 476.5 Q 77.3 458.3 89.5 448 L 91.5 447 Z " /><path fill="rgb(165,200,25)" stroke="rgb(165,200,25)" stroke-width="1" opacity="1" d="M 479.5 462 Q 493.3 460.2 497 468.5 Q 500 472.5 499 480.5 L 496 487 L 480.5 498 L 471.5 502 L 464.5 503 L 460 499.5 L 460 491.5 L 463 482.5 Q 467.3 470.3 476.5 463 L 479.5 462 Z " /><path fill="rgb(165,200,25)" stroke="rgb(165,200,25)" stroke-width="1" opacity="1" d="M 211.5 518 Q 221.1 518.4 225 524.5 L 228 534.5 Q 226.5 543 220.5 547 Q 211.5 554.5 199.5 559 L 190 559 L 188 552.5 Q 191.8 531.8 204.5 520 L 211.5 518 Z " /><path fill="rgb(165,200,25)" stroke="rgb(165,200,25)" stroke-width="1" opacity="1" d="M 385.5 544 Q 398.4 542.1 402 549.5 L 405 556.5 L 405 561.5 Q 402.6 570.1 395.5 574 L 382.5 582 L 370.5 585 L 366 583 Q 364.9 573.1 368 566.5 Q 372.4 553.9 381.5 546 L 385.5 544 Z " /><path fill="rgb(165,200,25)" stroke="rgb(165,200,25)" stroke-width="1" opacity="1" d="M 124.5 611 Q 137 609 141 615.5 L 144 620.5 L 145 626.5 Q 143.3 635.8 136.5 640 L 119.5 650 L 111.5 652 L 106 648.5 L 106 639.5 L 109 630.5 L 119.5 614 L 124.5 611 Z " /><path fill="rgb(165,200,25)" stroke="rgb(165,200,25)" stroke-width="1" opacity="1" d="M 281.5 617 L 289.5 617 L 298 622.5 Q 301 626.5 301 633.5 L 300 638.5 L 291.5 647 L 278.5 655 L 269.5 658 L 265.5 658 L 263 657 Q 260.9 653.7 262 645.5 Q 266.4 628.9 277.5 619 L 281.5 617 Z " /><path fill="rgb(229,20,16)" stroke="rgb(229,20,16)" stroke-width="1" opacity="1" d="M 279.5 54 L 284.5 55 L 286.5 55 L 299.5 55 L 331.5 62 L 337.5 65 L 340.5 65 L 344.5 68 L 348.5 68 L 355.5 73 L 362 75 Q 360.8 78 364.5 77 L 369.5 81 L 382 87 Q 380.8 90 384.5 89 L 393.5 95 L 396 95 L 398 99 L 400.5 99 L 420 111 Q 418.9 113.7 421.5 113 L 436 123 L 436.5 125 L 437.5 124 L 442.5 129 L 450 133.5 L 449.5 135 L 451.5 134 L 458 139.5 L 458.5 141 L 459.5 140 L 466.5 147 L 484 159 L 485.5 162 L 490 164 Q 488.9 166.7 491.5 166 L 498 171.5 Q 497.3 173.8 499.5 173 L 506 178 Q 504.9 180.7 507.5 180 L 516 187 Q 514.9 189.7 517.5 189 L 520 193 L 527 197.5 L 529 200.5 L 532 202 Q 530.9 204.7 533.5 204 L 538.5 210 L 542 211 L 543 215 L 550 219 L 550 221 Q 552.7 219.9 552 222.5 L 558 227 L 559 231 Q 561.7 229.9 561 232.5 L 569 239.5 L 570.5 242 Q 572.8 241.3 572 243.5 L 578 251 L 582 253.5 Q 581.3 255.8 583.5 255 L 582.5 258 L 584.5 257 L 586 260 L 591 263.5 L 596 271 L 598 271.5 Q 595.8 272.8 598.5 274 L 601.5 276 L 605 279.5 L 604 280.5 L 604.5 282 L 605.5 281 L 609 284.5 L 615 294 Q 617.7 292.9 617 295.5 L 622 303 Q 624.7 301.9 624 304.5 Q 631.1 310.3 634 319 Q 636.7 317.9 636 320.5 L 640 327 Q 643 325.8 642 329.5 L 647 335.5 L 646.5 337 Q 649.8 335.9 649 338.5 L 658 351.5 L 657 352.5 L 660 355.5 L 672 381.5 L 671.5 383 Q 674.1 382.2 673 385.5 L 678 400.5 L 673 416.5 L 664 431 Q 661.3 429.9 662 432.5 L 644 449.5 Q 644.8 451.8 642.5 451 L 595.5 487 L 555.5 513 L 511.5 538 L 475.5 556 L 455.5 564 L 451.5 567 L 402.5 585 L 385.5 589 L 382.5 591 L 378.5 591 L 374.5 593 L 370.5 593 L 347.5 599 L 341.5 599 L 326.5 602 L 316.5 602 L 307.5 604 L 268.5 604 L 267.5 603 L 258.5 603 L 257.5 602 L 236.5 600 L 215.5 595 L 202.5 591 L 197.5 588 L 194.5 588 L 155.5 569 L 122 545 L 122 543 Q 119.3 544.1 120 541.5 L 116 539 L 113.5 535 Q 111.3 535.8 112 533.5 L 108 531 L 108 529 Q 105.3 530.1 106 527.5 Q 92.4 513.6 83 495.5 L 83.5 494 L 81 492.5 L 80 489.5 L 92 485 L 92.5 483 Q 93.8 485.3 95 482.5 L 95.5 481 L 97.5 481 L 107 475 Q 105.9 471.7 110 473 L 110 470.5 L 112 466.5 L 113 459.5 L 111 457.5 Q 112.3 452.3 109.5 451 L 105.5 448 Q 104 450.5 102.5 447 L 98 446.5 L 98.5 445 L 95 445.5 L 95.5 447 L 90.5 447 L 85 450.5 Q 85.8 452.8 83.5 452 L 74 468.5 L 73.5 473 L 68 459.5 L 65 445.5 L 65 439.5 L 63 433.5 L 61 391.5 L 62 390.5 L 62 370.5 L 66 360.5 L 66 358.5 L 73 335 L 75 334.5 L 74 331.5 L 80 314 L 82 313.5 L 81 310.5 L 92.5 280 L 94 280.5 L 93 278.5 L 96 271 L 98 270.5 L 98 268.5 L 106 247.5 L 114 232.5 Q 111.5 231 115 229.5 L 121 215.5 L 126 208.5 L 127 203.5 L 134 193.5 L 137 185 L 139 184.5 Q 136.5 183 140 181.5 L 152 160.5 L 158 153.5 L 169 135 L 172 133.5 L 180.5 121 Q 183.1 121.8 182 118.5 L 186 113 L 188 113 Q 186.9 110.3 189.5 111 L 189 109.5 L 193.5 105 L 195 104.5 L 194.5 103 Q 196.8 103.8 196 101.5 L 198 101.5 L 201 95 L 204 93.5 L 206 90.5 L 209 89 Q 207.9 86.3 210.5 87 L 212 84 L 222 78 L 223.5 75 L 226 75 L 226 73 L 228 73 Q 226.9 70.3 229.5 71 L 236.5 66 L 252.5 59 L 255 60 Q 253.9 57.3 256.5 58 L 268.5 55 L 278.5 55 L 279.5 54 Z M 301 58 L 301 59 L 303 59 L 301 58 Z M 283 84 Q 281 87 275 85 L 268 89 Q 265 88 266 91 Q 264 89 262 93 Q 259 92 260 95 L 248 104 L 243 112 Q 244 114 242 113 L 242 115 L 238 120 Q 239 122 236 121 L 236 125 L 234 125 L 233 128 L 234 130 Q 230 131 233 133 L 231 136 L 230 146 L 237 151 L 249 151 Q 248 148 252 149 L 257 143 Q 259 144 258 141 L 260 141 Q 259 137 262 138 L 262 135 L 264 135 L 265 132 L 275 123 Q 277 124 276 121 L 279 121 L 279 119 L 292 114 L 296 112 L 297 113 L 309 107 L 313 100 L 310 91 Q 307 92 308 89 Q 305 90 304 87 L 300 87 Q 301 84 299 85 Q 297 87 296 84 L 294 85 Q 290 83 283 84 Z M 208 91 L 208 93 L 210 92 L 208 91 Z M 308 119 L 300 124 L 290 141 Q 291 146 288 148 L 288 160 L 291 161 L 293 161 L 298 162 L 298 160 L 302 161 L 301 160 L 309 157 L 325 145 L 326 145 L 326 140 L 328 140 L 327 134 L 328 129 L 327 129 L 327 128 L 325 124 Q 321 125 322 123 L 317 119 L 308 119 Z M 175 129 L 175 131 L 177 130 L 175 129 Z M 286 145 L 285 148 L 286 148 L 286 145 Z M 212 165 L 212 167 L 201 174 Q 202 176 200 175 Q 196 175 196 181 L 192 183 Q 193 187 190 188 L 188 188 L 188 191 Q 185 190 186 193 L 184 193 Q 185 197 182 196 L 182 199 L 180 199 Q 181 202 179 201 Q 176 202 178 204 L 174 209 Q 171 208 172 212 L 170 212 L 170 215 L 168 215 L 156 235 Q 157 238 154 237 Q 155 240 152 242 Q 153 245 150 244 L 148 251 Q 149 253 146 252 L 145 258 L 140 267 Q 141 270 138 269 Q 139 274 136 277 L 136 279 L 132 288 L 132 290 L 130 291 L 130 295 Q 126 296 129 298 L 124 308 L 125 310 L 122 317 L 120 321 L 121 323 L 119 323 L 120 327 Q 116 331 116 341 L 114 343 L 115 347 L 114 348 L 114 358 L 114 360 L 121 370 Q 120 373 124 371 L 124 373 Q 126 371 133 372 L 134 376 L 137 377 L 146 377 L 146 376 L 148 376 L 154 373 Q 157 374 156 371 L 159 370 Q 162 371 161 368 Q 168 366 172 360 Q 171 356 174 357 L 175 352 L 172 342 L 167 337 L 168 335 L 168 332 Q 171 333 170 331 L 170 329 Q 169 326 172 327 L 172 322 L 174 322 L 176 312 L 179 307 L 180 300 Q 183 298 181 297 Q 180 294 183 295 L 185 285 Q 188 283 186 282 L 188 278 Q 191 276 189 275 L 190 273 Q 193 271 191 270 L 193 269 L 193 267 L 194 267 L 194 263 Q 197 264 196 262 L 196 260 L 198 259 L 198 257 L 202 251 L 206 245 Q 209 243 207 242 L 215 230 L 220 223 Q 219 219 222 220 L 225 213 Q 224 210 227 211 L 227 209 L 228 209 L 228 204 L 230 204 L 230 202 Q 229 198 232 199 L 231 196 Q 234 194 233 190 L 233 186 Q 231 182 232 176 L 230 174 L 231 172 L 230 172 L 230 171 L 226 167 Q 223 168 224 165 L 222 166 L 221 165 L 212 165 Z M 228 232 L 224 234 Q 221 233 222 236 L 220 236 L 212 249 L 211 247 L 209 257 L 207 261 L 207 263 L 205 267 L 206 271 Q 204 272 207 273 Q 209 272 208 275 Q 220 276 228 270 L 230 270 L 231 270 L 230 267 Q 233 268 235 265 Q 237 266 236 263 L 242 261 L 246 253 Q 248 242 243 239 Q 244 235 240 237 L 240 235 L 234 232 L 231 233 L 228 232 Z M 459 241 Q 457 244 452 244 L 446 251 Q 447 254 444 253 L 444 257 L 442 257 L 437 272 L 437 282 L 441 284 L 450 283 L 453 281 Q 456 282 455 280 L 457 280 L 466 273 Q 469 274 468 271 L 473 269 L 476 264 Q 474 258 478 259 Q 480 254 476 255 Q 478 248 473 247 Q 474 244 470 245 L 470 243 L 465 241 L 462 242 L 459 241 Z M 206 255 L 206 258 L 208 257 Q 209 254 206 255 Z M 215 277 L 215 278 L 218 278 L 215 277 Z M 376 333 L 368 337 L 358 352 L 354 363 Q 356 369 353 371 L 355 375 L 367 375 L 375 372 L 389 362 L 392 359 L 391 358 L 393 357 L 392 356 L 394 353 L 394 351 Q 396 344 393 343 L 391 340 Q 388 335 382 333 L 380 334 L 376 333 Z M 592 367 Q 590 369 586 368 L 584 368 Q 581 367 582 370 L 581 369 L 579 370 L 572 379 L 570 382 L 570 384 L 567 391 L 567 393 Q 564 392 565 397 L 564 400 Q 562 408 567 410 L 575 410 L 587 404 Q 589 405 588 403 L 590 403 L 600 395 Q 599 392 603 393 L 602 392 L 604 387 L 604 385 L 604 380 Q 601 379 602 375 Q 598 369 592 367 Z M 289 426 L 289 428 L 288 427 L 286 428 L 278 439 Q 279 442 276 441 L 272 452 L 271 463 L 270 464 L 271 466 L 274 468 Q 278 467 280 469 L 297 460 Q 299 461 298 459 L 300 459 L 303 457 Q 302 454 305 455 Q 310 453 311 447 L 311 437 L 307 429 Q 303 430 302 426 L 289 426 Z M 278 433 L 278 435 L 280 434 L 278 433 Z M 492 458 L 490 460 L 492 460 L 492 458 Z M 480 461 L 472 466 Q 473 469 471 468 L 461 485 L 462 487 L 460 490 L 460 502 L 463 503 Q 471 504 475 501 Q 479 502 478 499 L 483 497 Q 485 498 484 495 L 487 495 L 493 491 L 497 487 L 500 477 L 499 470 L 496 467 Q 497 464 494 465 L 494 463 Q 489 460 480 461 Z M 209 517 L 209 519 L 208 518 L 203 521 L 198 525 L 198 527 Q 193 530 192 538 L 192 540 L 190 540 L 188 547 Q 186 555 189 559 L 192 560 L 193 560 Q 192 563 198 561 L 197 560 L 202 559 L 211 554 L 214 553 Q 216 554 215 552 L 221 548 Q 223 549 222 545 L 225 545 L 224 544 L 226 543 L 228 538 Q 229 529 226 525 Q 221 517 209 517 Z M 386 543 L 384 544 Q 382 547 381 545 L 376 551 Q 372 552 375 554 L 373 554 L 372 557 Q 373 560 370 559 L 369 563 Q 370 565 368 564 L 368 566 Q 365 568 366 575 L 366 577 L 365 579 L 365 581 Q 365 585 368 585 L 378 585 L 378 584 L 380 584 L 398 574 L 403 569 L 406 559 L 403 550 L 398 544 L 386 543 Z M 411 558 L 410 561 L 411 561 L 411 558 Z " /><path fill="rgb(229,20,16)" stroke="rgb(229,20,16)" stroke-width="1" opacity="1" d="M 20.5 583 L 21 590.5 L 20 590.5 L 20.5 583 Z " /><path fill="rgb(229,20,16)" stroke="rgb(229,20,16)" stroke-width="1" opacity="1" d="M 528.5 595 L 527.5 597 L 528.5 595 Z " /><path fill="rgb(229,20,16)" stroke="rgb(229,20,16)" stroke-width="1" opacity="1" d="M 20.5 606 L 21 608.5 L 20 608.5 L 20.5 606 Z " /><path fill="rgb(229,20,16)" stroke="rgb(229,20,16)" stroke-width="1" opacity="1" d="M 499.5 613 L 498.5 615 L 499.5 613 Z " /><path fill="rgb(229,20,16)" stroke="rgb(229,20,16)" stroke-width="1" opacity="1" d="M 114.5 732 L 118 732.5 L 114.5 733 L 114.5 732 Z " /><path fill="rgb(234,109,103)" stroke="rgb(234,109,103)" stroke-width="1" opacity="1" d="M 346.5 20 L 351 22.5 L 349.5 22 L 346 21 L 345.5 23 L 345 21.5 L 346.5 20 Z " /><path fill="rgb(234,109,103)" stroke="rgb(234,109,103)" stroke-width="1" opacity="1" d="M 352.5 23 L 353.5 25 L 352.5 23 Z " /><path fill="rgb(234,109,103)" stroke="rgb(234,109,103)" stroke-width="1" opacity="1" d="M 345.5 25 L 346 29.5 L 345 29.5 L 345.5 25 Z " /><path fill="rgb(234,109,103)" stroke="rgb(234,109,103)" stroke-width="1" opacity="1" d="M 355.5 25 L 360 28.5 L 357.5 27 L 355.5 25 Z " /><path fill="rgb(234,109,103)" stroke="rgb(234,109,103)" stroke-width="1" opacity="1" d="M 361.5 29 L 362.5 31 L 361.5 29 Z " /><path fill="rgb(234,109,103)" stroke="rgb(234,109,103)" stroke-width="1" opacity="1" d="M 368.5 34 L 369.5 36 L 368.5 34 Z " /><path fill="rgb(234,109,103)" stroke="rgb(234,109,103)" stroke-width="1" opacity="1" d="M 371.5 36 L 377 40.5 L 373.5 38 L 371.5 36 Z " /><path fill="rgb(234,109,103)" stroke="rgb(234,109,103)" stroke-width="1" opacity="1" d="M 344.5 37 L 345 41.5 L 344 41.5 L 344.5 37 Z " /><path fill="rgb(234,109,103)" stroke="rgb(234,109,103)" stroke-width="1" opacity="1" d="M 378.5 41 L 380.5 44 L 378.5 41 Z " /><path fill="rgb(234,109,103)" stroke="rgb(234,109,103)" stroke-width="1" opacity="1" d="M 472.5 42 L 471.5 44 L 472.5 42 Z " /><path fill="rgb(234,109,103)" stroke="rgb(234,109,103)" stroke-width="1" opacity="1" d="M 382.5 44 L 384.5 47 L 382.5 44 Z " /><path fill="rgb(234,109,103)" stroke="rgb(234,109,103)" stroke-width="1" opacity="1" d="M 480.5 44 L 481.5 46 L 480.5 44 Z " /><path fill="rgb(234,109,103)" stroke="rgb(234,109,103)" stroke-width="1" opacity="1" d="M 468.5 45 L 467.5 47 L 468.5 45 Z " /><path fill="rgb(234,109,103)" stroke="rgb(234,109,103)" stroke-width="1" opacity="1" d="M 482.5 47 L 483.5 49 L 482.5 47 Z " /><path fill="rgb(234,109,103)" stroke="rgb(234,109,103)" stroke-width="1" opacity="1" d="M 387.5 48 L 391.5 53 L 387.5 48 Z " /><path fill="rgb(234,109,103)" stroke="rgb(234,109,103)" stroke-width="1" opacity="1" d="M 464.5 48 L 460 53.5 Q 460.8 55.8 458.5 55 L 462 50.5 Q 461.3 48.3 463.5 49 L 464.5 48 Z " /><path fill="rgb(234,109,103)" stroke="rgb(234,109,103)" stroke-width="1" opacity="1" d="M 485.5 52 L 490 59.5 L 488 58.5 L 485.5 52 Z " /><path fill="rgb(234,109,103)" stroke="rgb(234,109,103)" stroke-width="1" opacity="1" d="M 393.5 53 L 398 56 L 400 59.5 L 393.5 53 Z " /><path fill="rgb(234,109,103)" stroke="rgb(234,109,103)" stroke-width="1" opacity="1" d="M 269.5 54 L 279 54.5 L 269.5 55 L 269.5 54 Z " /><path fill="rgb(234,109,103)" stroke="rgb(234,109,103)" stroke-width="1" opacity="1" d="M 286.5 54 L 297 54.5 L 286.5 55 L 286.5 54 Z " /><path fill="rgb(234,109,103)" stroke="rgb(234,109,103)" stroke-width="1" opacity="1" d="M 262.5 55 L 267 55.5 L 258.5 57 L 258.5 56 L 262.5 55 Z " /><path fill="rgb(234,109,103)" stroke="rgb(234,109,103)" stroke-width="1" opacity="1" d="M 300.5 55 L 311 56.5 L 306.5 57 Q 305.3 54.8 300.5 56 L 300.5 55 Z " /><path fill="rgb(234,109,103)" stroke="rgb(234,109,103)" stroke-width="1" opacity="1" d="M 457.5 56 L 455.5 59 L 457.5 56 Z " /><path fill="rgb(234,109,103)" stroke="rgb(234,109,103)" stroke-width="1" opacity="1" d="M 254.5 57 L 257 57.5 L 252.5 59 L 252.5 58 L 254.5 57 Z " /><path fill="rgb(234,109,103)" stroke="rgb(234,109,103)" stroke-width="1" opacity="1" d="M 312.5 57 L 316 57.5 L 312.5 58 L 312.5 57 Z " /><path fill="rgb(234,109,103)" stroke="rgb(234,109,103)" stroke-width="1" opacity="1" d="M 317.5 58 L 324 59.5 L 321.5 60 L 317.5 59 L 317.5 58 Z " /><path fill="rgb(234,109,103)" stroke="rgb(234,109,103)" stroke-width="1" opacity="1" d="M 248.5 59 L 251 59.5 L 228.5 71 Q 211.5 83 198 98.5 L 188.5 110 L 191 106.5 L 196 98 L 202 93.5 Q 201.3 91.3 203.5 92 L 210.5 84 Q 215.5 77.5 223 75 Q 221.9 72.3 224.5 73 Q 235 64.5 248.5 59 Z " /><path fill="rgb(234,109,103)" stroke="rgb(234,109,103)" stroke-width="1" opacity="1" d="M 325.5 60 L 328 60.5 L 325.5 61 L 325.5 60 Z " /><path fill="rgb(234,109,103)" stroke="rgb(234,109,103)" stroke-width="1" opacity="1" d="M 329.5 61 L 332.5 61 L 338.5 64 L 344 64 Q 345.3 67 341.5 66 L 329.5 62 L 329.5 61 Z " /><path fill="rgb(234,109,103)" stroke="rgb(234,109,103)" stroke-width="1" opacity="1" d="M 451.5 64 L 450.5 66 L 451.5 64 Z " /><path fill="rgb(234,109,103)" stroke="rgb(234,109,103)" stroke-width="1" opacity="1" d="M 492.5 65 L 495 69.5 L 494 69.5 L 492.5 65 Z " /><path fill="rgb(234,109,103)" stroke="rgb(234,109,103)" stroke-width="1" opacity="1" d="M 408.5 68 L 413.5 74 L 408.5 68 Z " /><path fill="rgb(234,109,103)" stroke="rgb(234,109,103)" stroke-width="1" opacity="1" d="M 414.5 75 L 416.5 78 L 414.5 75 Z " /><path fill="rgb(234,109,103)" stroke="rgb(234,109,103)" stroke-width="1" opacity="1" d="M 498.5 77 L 500 80.5 L 499 80.5 L 498.5 77 Z " /><path fill="rgb(234,109,103)" stroke="rgb(234,109,103)" stroke-width="1" opacity="1" d="M 417.5 79 L 418.5 81 L 417.5 79 Z " /><path fill="rgb(234,109,103)" stroke="rgb(234,109,103)" stroke-width="1" opacity="1" d="M 420.5 83 L 421.5 85 L 420.5 83 Z " /><path fill="rgb(234,109,103)" stroke="rgb(234,109,103)" stroke-width="1" opacity="1" d="M 282.5 84 Q 302.5 83 311 93.5 L 312 102.5 L 302.5 110 Q 289.4 112.9 279.5 119 L 265 131.5 Q 259.4 141.8 250.5 149 Q 246.5 152.5 237.5 151 L 231 145.5 L 231 136.5 L 238 119.5 Q 245.8 105.8 257.5 96 L 268.5 88 L 282.5 84 Z " /><path fill="rgb(234,109,103)" stroke="rgb(234,109,103)" stroke-width="1" opacity="1" d="M 422.5 86 L 425 89.5 L 423 88.5 L 422.5 86 Z " /><path fill="rgb(234,109,103)" stroke="rgb(234,109,103)" stroke-width="1" opacity="1" d="M 438.5 101 L 439 103.5 L 438 103.5 L 438.5 101 Z " /><path fill="rgb(234,109,103)" stroke="rgb(234,109,103)" stroke-width="1" opacity="1" d="M 186 111 L 188 111.5 L 164.5 142 L 165 140.5 L 178 122.5 L 179 119 Q 181.7 120.1 181 117.5 L 184 113 Q 187 114 186 111 Z " /><path fill="rgb(234,109,103)" stroke="rgb(234,109,103)" stroke-width="1" opacity="1" d="M 310.5 119 L 314 119.5 L 310.5 120 L 310.5 119 Z " /><path fill="rgb(234,109,103)" stroke="rgb(234,109,103)" stroke-width="1" opacity="1" d="M 436 119 Q 439.7 117.7 438 123.5 L 438.5 125 L 436 122.5 L 436 120.5 L 436 119 Z " /><path fill="rgb(234,109,103)" stroke="rgb(234,109,103)" stroke-width="1" opacity="1" d="M 324.5 126 L 325.5 128 L 324.5 126 Z " /><path fill="rgb(234,109,103)" stroke="rgb(234,109,103)" stroke-width="1" opacity="1" d="M 516.5 131 Q 518.8 132.8 518 137.5 L 517 137.5 L 516.5 131 Z " /><path fill="rgb(234,109,103)" stroke="rgb(234,109,103)" stroke-width="1" opacity="1" d="M 162 143 L 164 143.5 Q 147.7 165.2 134.5 190 L 135 188.5 L 138 181.5 L 156 153.5 L 156 151 L 159 149.5 L 162 143 Z " /><path fill="rgb(234,109,103)" stroke="rgb(234,109,103)" stroke-width="1" opacity="1" d="M 575.5 145 L 578 145.5 L 575.5 146 L 575.5 145 Z " /><path fill="rgb(234,109,103)" stroke="rgb(234,109,103)" stroke-width="1" opacity="1" d="M 319.5 148 L 318.5 150 L 319.5 148 Z " /><path fill="rgb(234,109,103)" stroke="rgb(234,109,103)" stroke-width="1" opacity="1" d="M 620.5 151 L 624 152.5 L 622.5 152 Q 619.5 152.5 620.5 151 Z " /><path fill="rgb(234,109,103)" stroke="rgb(234,109,103)" stroke-width="1" opacity="1" d="M 546.5 155 L 548 155.5 L 545.5 157 L 546.5 155 Z " /><path fill="rgb(234,109,103)" stroke="rgb(234,109,103)" stroke-width="1" opacity="1" d="M 542.5 157 L 544 157.5 L 541.5 159 L 542.5 157 Z " /><path fill="rgb(234,109,103)" stroke="rgb(234,109,103)" stroke-width="1" opacity="1" d="M 636.5 157 L 639 158.5 L 637.5 158 L 636.5 157 Z " /><path fill="rgb(234,109,103)" stroke="rgb(234,109,103)" stroke-width="1" opacity="1" d="M 532.5 163 L 531.5 165 L 528.5 167 L 530.5 164 L 532.5 163 Z " /><path fill="rgb(234,109,103)" stroke="rgb(234,109,103)" stroke-width="1" opacity="1" d="M 214.5 165 Q 225.3 164.3 229 170.5 L 232 176.5 L 233 185.5 L 232 186.5 L 232 194.5 L 228 206.5 L 191 269.5 L 167 337.5 L 167.5 339 Q 164.1 333.9 153.5 336 L 146 341.5 L 136 360.5 L 135 372 Q 120.8 374.6 117 365.5 Q 112.6 359.4 114 347.5 L 118 329.5 L 120 326.5 L 126 303.5 L 138 271.5 L 149 247.5 Q 172.6 204.1 205.5 170 L 214.5 165 Z " /><path fill="rgb(234,109,103)" stroke="rgb(234,109,103)" stroke-width="1" opacity="1" d="M 524.5 168 L 522.5 171 L 524.5 168 Z " /><path fill="rgb(234,109,103)" stroke="rgb(234,109,103)" stroke-width="1" opacity="1" d="M 517.5 173 L 516.5 175 L 515 174.5 L 517.5 173 Z " /><path fill="rgb(234,109,103)" stroke="rgb(234,109,103)" stroke-width="1" opacity="1" d="M 511.5 175 L 514 176.5 L 510 179 Q 511 182 508 181 L 511.5 175 Z " /><path fill="rgb(234,109,103)" stroke="rgb(234,109,103)" stroke-width="1" opacity="1" d="M 633.5 182 L 633 183.5 L 631.5 186 L 632 184.5 L 633.5 182 Z " /><path fill="rgb(234,109,103)" stroke="rgb(234,109,103)" stroke-width="1" opacity="1" d="M 630.5 187 L 630 188.5 L 625.5 195 L 627 192.5 L 630.5 187 Z " /><path fill="rgb(234,109,103)" stroke="rgb(234,109,103)" stroke-width="1" opacity="1" d="M 133.5 191 L 134 192.5 L 127 203.5 L 108.5 242 L 108 240.5 L 128 201.5 L 128 198.5 L 133.5 191 Z " /><path fill="rgb(234,109,103)" stroke="rgb(234,109,103)" stroke-width="1" opacity="1" d="M 623.5 197 L 622 199.5 L 617.5 205 L 621 200.5 L 623.5 197 Z " /><path fill="rgb(234,109,103)" stroke="rgb(234,109,103)" stroke-width="1" opacity="1" d="M 615.5 206 L 612.5 210 L 615.5 206 Z " /><path fill="rgb(234,109,103)" stroke="rgb(234,109,103)" stroke-width="1" opacity="1" d="M 610.5 210 L 609.5 212 L 610.5 210 Z " /><path fill="rgb(234,109,103)" stroke="rgb(234,109,103)" stroke-width="1" opacity="1" d="M 607.5 212 L 606.5 214 L 607.5 212 Z " /><path fill="rgb(234,109,103)" stroke="rgb(234,109,103)" stroke-width="1" opacity="1" d="M 602.5 215 L 601.5 217 L 602.5 215 Z " /><path fill="rgb(234,109,103)" stroke="rgb(234,109,103)" stroke-width="1" opacity="1" d="M 598.5 217 L 597.5 219 L 596 218.5 L 598.5 217 Z " /><path fill="rgb(234,109,103)" stroke="rgb(234,109,103)" stroke-width="1" opacity="1" d="M 558.5 227 Q 560.8 226.3 560 228.5 L 564 231 L 563.5 233 L 558.5 227 Z " /><path fill="rgb(234,109,103)" stroke="rgb(234,109,103)" stroke-width="1" opacity="1" d="M 575.5 229 L 578 229.5 L 575.5 230 L 575.5 229 Z " /><path fill="rgb(234,109,103)" stroke="rgb(234,109,103)" stroke-width="1" opacity="1" d="M 609.5 229 L 614 229.5 L 609.5 230 L 609.5 229 Z " /><path fill="rgb(234,109,103)" stroke="rgb(234,109,103)" stroke-width="1" opacity="1" d="M 617.5 230 L 620 230.5 L 617.5 231 L 617.5 230 Z " /><path fill="rgb(234,109,103)" stroke="rgb(234,109,103)" stroke-width="1" opacity="1" d="M 629.5 232 L 632 232.5 L 629.5 233 L 629.5 232 Z " /><path fill="rgb(234,109,103)" stroke="rgb(234,109,103)" stroke-width="1" opacity="1" d="M 238.5 235 L 239.5 237 L 238.5 235 Z " /><path fill="rgb(234,109,103)" stroke="rgb(234,109,103)" stroke-width="1" opacity="1" d="M 642.5 235 L 646 236.5 L 644.5 237 L 642.5 235 Z " /><path fill="rgb(234,109,103)" stroke="rgb(234,109,103)" stroke-width="1" opacity="1" d="M 107.5 243 L 107 244.5 L 98.5 265 L 98 262.5 L 107.5 243 Z " /><path fill="rgb(234,109,103)" stroke="rgb(234,109,103)" stroke-width="1" opacity="1" d="M 666.5 244 L 672 246.5 L 670.5 246 Q 665.7 246 666.5 244 Z " /><path fill="rgb(234,109,103)" stroke="rgb(234,109,103)" stroke-width="1" opacity="1" d="M 245.5 247 L 246 249.5 L 245 249.5 L 245.5 247 Z " /><path fill="rgb(234,109,103)" stroke="rgb(234,109,103)" stroke-width="1" opacity="1" d="M 473.5 248 L 474.5 250 L 473.5 248 Z " /><path fill="rgb(234,109,103)" stroke="rgb(234,109,103)" stroke-width="1" opacity="1" d="M 683.5 252 L 687 253 L 686.5 255 L 683.5 252 Z " /><path fill="rgb(234,109,103)" stroke="rgb(234,109,103)" stroke-width="1" opacity="1" d="M 476.5 255 L 477 258.5 L 476 258.5 L 476.5 255 Z " /><path fill="rgb(234,109,103)" stroke="rgb(234,109,103)" stroke-width="1" opacity="1" d="M 242.5 257 L 240.5 260 L 242.5 257 Z " /><path fill="rgb(234,109,103)" stroke="rgb(234,109,103)" stroke-width="1" opacity="1" d="M 695.5 259 L 696.5 261 L 695.5 259 Z " /><path fill="rgb(234,109,103)" stroke="rgb(234,109,103)" stroke-width="1" opacity="1" d="M 698.5 261 L 699.5 263 L 698.5 261 Z " /><path fill="rgb(234,109,103)" stroke="rgb(234,109,103)" stroke-width="1" opacity="1" d="M 701.5 263 L 702.5 265 L 701.5 263 Z " /><path fill="rgb(234,109,103)" stroke="rgb(234,109,103)" stroke-width="1" opacity="1" d="M 704.5 265 L 705.5 267 L 704.5 265 Z " /><path fill="rgb(234,109,103)" stroke="rgb(234,109,103)" stroke-width="1" opacity="1" d="M 97.5 266 L 98 267.5 L 92.5 280 L 92 278.5 L 97.5 266 Z " /><path fill="rgb(234,109,103)" stroke="rgb(234,109,103)" stroke-width="1" opacity="1" d="M 708.5 268 L 714 272.5 L 710.5 270 L 708.5 268 Z " /><path fill="rgb(234,109,103)" stroke="rgb(234,109,103)" stroke-width="1" opacity="1" d="M 207.5 272 L 208.5 274 L 207.5 272 Z " /><path fill="rgb(234,109,103)" stroke="rgb(234,109,103)" stroke-width="1" opacity="1" d="M 715.5 273 Q 717.8 272.3 717 274.5 L 715.5 273 Z " /><path fill="rgb(234,109,103)" stroke="rgb(234,109,103)" stroke-width="1" opacity="1" d="M 716.5 276 L 710.5 283 L 716.5 276 Z " /><path fill="rgb(234,109,103)" stroke="rgb(234,109,103)" stroke-width="1" opacity="1" d="M 91.5 281 L 92 282.5 L 83.5 304 L 83 302.5 L 91.5 281 Z " /><path fill="rgb(234,109,103)" stroke="rgb(234,109,103)" stroke-width="1" opacity="1" d="M 708.5 283 L 707.5 285 L 708.5 283 Z " /><path fill="rgb(234,109,103)" stroke="rgb(234,109,103)" stroke-width="1" opacity="1" d="M 705.5 285 L 702.5 289 L 700 288.5 L 705.5 285 Z " /><path fill="rgb(234,109,103)" stroke="rgb(234,109,103)" stroke-width="1" opacity="1" d="M 613.5 289 L 617 290 L 618 295 Q 621 294 620 297 Q 617.3 298.1 618 295.5 L 613.5 289 Z " /><path fill="rgb(234,109,103)" stroke="rgb(234,109,103)" stroke-width="1" opacity="1" d="M 625.5 293 L 628 293.5 L 625.5 294 L 625.5 293 Z " /><path fill="rgb(234,109,103)" stroke="rgb(234,109,103)" stroke-width="1" opacity="1" d="M 624.5 296 L 628 296.5 L 624.5 297 L 624.5 296 Z " /><path fill="rgb(234,109,103)" stroke="rgb(234,109,103)" stroke-width="1" opacity="1" d="M 639 296 L 643 297.5 Q 643.8 299.8 641.5 299 L 639 298 L 639 296 Z " /><path fill="rgb(234,109,103)" stroke="rgb(234,109,103)" stroke-width="1" opacity="1" d="M 648 297 L 650 297.5 L 649 300 L 646 299.5 L 648 299 L 648 297 Z " /><path fill="rgb(234,109,103)" stroke="rgb(234,109,103)" stroke-width="1" opacity="1" d="M 82.5 305 L 83 306.5 L 81.5 310 L 81 307.5 L 82.5 305 Z " /><path fill="rgb(234,109,103)" stroke="rgb(234,109,103)" stroke-width="1" opacity="1" d="M 666.5 305 L 672 307.5 L 670.5 307 Q 665.7 307.1 666.5 305 Z " /><path fill="rgb(234,109,103)" stroke="rgb(234,109,103)" stroke-width="1" opacity="1" d="M 675.5 309 L 678 310.5 L 676.5 310 L 675.5 309 Z " /><path fill="rgb(234,109,103)" stroke="rgb(234,109,103)" stroke-width="1" opacity="1" d="M 80.5 311 L 81 312.5 L 70.5 343 L 70 340.5 L 80.5 311 Z " /><path fill="rgb(234,109,103)" stroke="rgb(234,109,103)" stroke-width="1" opacity="1" d="M 679.5 311 L 683 313.5 L 681.5 313 L 679.5 311 Z " /><path fill="rgb(234,109,103)" stroke="rgb(234,109,103)" stroke-width="1" opacity="1" d="M 686.5 315 L 691 318.5 L 689.5 318 L 686.5 315 Z " /><path fill="rgb(234,109,103)" stroke="rgb(234,109,103)" stroke-width="1" opacity="1" d="M 693.5 320 L 694.5 322 L 693.5 320 Z " /><path fill="rgb(234,109,103)" stroke="rgb(234,109,103)" stroke-width="1" opacity="1" d="M 697.5 323 L 698.5 325 L 697.5 323 Z " /><path fill="rgb(234,109,103)" stroke="rgb(234,109,103)" stroke-width="1" opacity="1" d="M 700.5 325 Q 702.8 324.3 702 326.5 L 700.5 325 Z " /><path fill="rgb(234,109,103)" stroke="rgb(234,109,103)" stroke-width="1" opacity="1" d="M 703.5 327 L 704.5 329 L 703.5 327 Z " /><path fill="rgb(234,109,103)" stroke="rgb(234,109,103)" stroke-width="1" opacity="1" d="M 706.5 329 L 712 333.5 L 709.5 332 L 706.5 329 Z " /><path fill="rgb(234,109,103)" stroke="rgb(234,109,103)" stroke-width="1" opacity="1" d="M 368.5 337 L 367.5 339 L 368.5 337 Z " /><path fill="rgb(234,109,103)" stroke="rgb(234,109,103)" stroke-width="1" opacity="1" d="M 720.5 339 L 721.5 341 L 720.5 339 Z " /><path fill="rgb(234,109,103)" stroke="rgb(234,109,103)" stroke-width="1" opacity="1" d="M 69.5 344 L 70 346.5 L 68.5 350 L 68 347.5 L 69.5 344 Z " /><path fill="rgb(234,109,103)" stroke="rgb(234,109,103)" stroke-width="1" opacity="1" d="M 727.5 344 L 728.5 346 L 727.5 344 Z " /><path fill="rgb(234,109,103)" stroke="rgb(234,109,103)" stroke-width="1" opacity="1" d="M 733.5 348 L 735.5 351 L 733.5 348 Z " /><path fill="rgb(234,109,103)" stroke="rgb(234,109,103)" stroke-width="1" opacity="1" d="M 67.5 351 L 68 352.5 L 66.5 356 L 66 353.5 L 67.5 351 Z " /><path fill="rgb(234,109,103)" stroke="rgb(234,109,103)" stroke-width="1" opacity="1" d="M 737.5 351 L 738.5 353 L 737.5 351 Z " /><path fill="rgb(234,109,103)" stroke="rgb(234,109,103)" stroke-width="1" opacity="1" d="M 740.5 353 L 741.5 355 L 740.5 353 Z " /><path fill="rgb(234,109,103)" stroke="rgb(234,109,103)" stroke-width="1" opacity="1" d="M 734.5 359 L 736 359.5 L 732.5 361 L 732.5 360 L 734.5 359 Z " /><path fill="rgb(234,109,103)" stroke="rgb(234,109,103)" stroke-width="1" opacity="1" d="M 64.5 360 L 65 362.5 L 61.5 372 L 61 370.5 L 64.5 360 Z " /><path fill="rgb(234,109,103)" stroke="rgb(234,109,103)" stroke-width="1" opacity="1" d="M 663.5 361 L 667 362.5 L 665 363 L 671 375.5 L 679 400.5 L 678 400.5 L 673 383.5 L 663.5 361 Z " /><path fill="rgb(234,109,103)" stroke="rgb(234,109,103)" stroke-width="1" opacity="1" d="M 135.5 374 L 136.5 376 L 135.5 374 Z " /><path fill="rgb(234,109,103)" stroke="rgb(234,109,103)" stroke-width="1" opacity="1" d="M 59.5 377 L 60 379.5 L 58.5 383 L 58 380.5 L 59.5 377 Z " /><path fill="rgb(234,109,103)" stroke="rgb(234,109,103)" stroke-width="1" opacity="1" d="M 57.5 384 L 58 386.5 L 56.5 391 L 56 385.5 L 57.5 384 Z " /><path fill="rgb(234,109,103)" stroke="rgb(234,109,103)" stroke-width="1" opacity="1" d="M 54.5 395 L 55 397.5 L 54 397.5 L 54.5 395 Z " /><path fill="rgb(234,109,103)" stroke="rgb(234,109,103)" stroke-width="1" opacity="1" d="M 53.5 399 L 54 401.5 L 53 401.5 L 53.5 399 Z " /><path fill="rgb(234,109,103)" stroke="rgb(234,109,103)" stroke-width="1" opacity="1" d="M 52.5 403 L 53 405.5 L 52 405.5 L 52.5 403 Z " /><path fill="rgb(234,109,103)" stroke="rgb(234,109,103)" stroke-width="1" opacity="1" d="M 679.5 403 L 680 405.5 L 679 405.5 L 679.5 403 Z " /><path fill="rgb(234,109,103)" stroke="rgb(234,109,103)" stroke-width="1" opacity="1" d="M 51.5 407 L 52 409.5 L 51 409.5 L 51.5 407 Z " /><path fill="rgb(234,109,103)" stroke="rgb(234,109,103)" stroke-width="1" opacity="1" d="M 565.5 407 L 566.5 409 L 565.5 407 Z " /><path fill="rgb(234,109,103)" stroke="rgb(234,109,103)" stroke-width="1" opacity="1" d="M 680.5 407 L 681 410.5 L 680 410.5 L 680.5 407 Z " /><path fill="rgb(234,109,103)" stroke="rgb(234,109,103)" stroke-width="1" opacity="1" d="M 50.5 411 L 51 413.5 L 50 413.5 L 50.5 411 Z " /><path fill="rgb(234,109,103)" stroke="rgb(234,109,103)" stroke-width="1" opacity="1" d="M 681.5 413 L 682 417.5 L 681 417.5 L 681.5 413 Z " /><path fill="rgb(234,109,103)" stroke="rgb(234,109,103)" stroke-width="1" opacity="1" d="M 49.5 415 L 50 417.5 L 49 417.5 L 49.5 415 Z " /><path fill="rgb(234,109,103)" stroke="rgb(234,109,103)" stroke-width="1" opacity="1" d="M 48.5 419 L 49 421.5 L 48 421.5 L 48.5 419 Z " /><path fill="rgb(234,109,103)" stroke="rgb(234,109,103)" stroke-width="1" opacity="1" d="M 47.5 423 L 48 425.5 L 47 425.5 L 47.5 423 Z " /><path fill="rgb(234,109,103)" stroke="rgb(234,109,103)" stroke-width="1" opacity="1" d="M 46.5 427 L 47 429.5 L 45.5 434 L 45 429.5 L 46.5 427 Z " /><path fill="rgb(234,109,103)" stroke="rgb(234,109,103)" stroke-width="1" opacity="1" d="M 44.5 435 L 45 437.5 L 44 437.5 L 44.5 435 Z " /><path fill="rgb(234,109,103)" stroke="rgb(234,109,103)" stroke-width="1" opacity="1" d="M 682.5 436 L 683 437.5 L 681.5 441 L 681 437.5 L 682.5 436 Z " /><path fill="rgb(234,109,103)" stroke="rgb(234,109,103)" stroke-width="1" opacity="1" d="M 310.5 439 L 311 443.5 L 310 443.5 L 310.5 439 Z " /><path fill="rgb(234,109,103)" stroke="rgb(234,109,103)" stroke-width="1" opacity="1" d="M 43.5 440 L 44 442.5 L 43 442.5 L 43.5 440 Z " /><path fill="rgb(234,109,103)" stroke="rgb(234,109,103)" stroke-width="1" opacity="1" d="M 42.5 444 L 43 446.5 L 42 446.5 L 42.5 444 Z " /><path fill="rgb(234,109,103)" stroke="rgb(234,109,103)" stroke-width="1" opacity="1" d="M 680.5 444 L 681 447.5 L 679.5 450 L 679 448.5 L 680.5 444 Z " /><path fill="rgb(234,109,103)" stroke="rgb(234,109,103)" stroke-width="1" opacity="1" d="M 41.5 448 L 42 450.5 L 41 450.5 L 41.5 448 Z " /><path fill="rgb(234,109,103)" stroke="rgb(234,109,103)" stroke-width="1" opacity="1" d="M 40.5 452 L 41 455.5 L 40 455.5 L 40.5 452 Z " /><path fill="rgb(234,109,103)" stroke="rgb(234,109,103)" stroke-width="1" opacity="1" d="M 83.5 454 L 82.5 456 L 83.5 454 Z " /><path fill="rgb(234,109,103)" stroke="rgb(234,109,103)" stroke-width="1" opacity="1" d="M 303.5 454 L 302.5 456 L 303.5 454 Z " /><path fill="rgb(234,109,103)" stroke="rgb(234,109,103)" stroke-width="1" opacity="1" d="M 677.5 454 L 678 456.5 L 676 457.5 L 677.5 454 Z " /><path fill="rgb(234,109,103)" stroke="rgb(234,109,103)" stroke-width="1" opacity="1" d="M 39.5 457 L 40 459.5 L 39 459.5 L 39.5 457 Z " /><path fill="rgb(234,109,103)" stroke="rgb(234,109,103)" stroke-width="1" opacity="1" d="M 675.5 459 L 676 460.5 L 673.5 465 L 673 463.5 L 675.5 459 Z " /><path fill="rgb(234,109,103)" stroke="rgb(234,109,103)" stroke-width="1" opacity="1" d="M 482.5 461 L 486 461.5 L 482.5 462 L 482.5 461 Z " /><path fill="rgb(234,109,103)" stroke="rgb(234,109,103)" stroke-width="1" opacity="1" d="M 38.5 462 L 39 464.5 L 38 464.5 L 38.5 462 Z " /><path fill="rgb(234,109,103)" stroke="rgb(234,109,103)" stroke-width="1" opacity="1" d="M 272.5 465 L 273.5 467 L 272.5 465 Z " /><path fill="rgb(234,109,103)" stroke="rgb(234,109,103)" stroke-width="1" opacity="1" d="M 37.5 466 L 38 468.5 L 37 468.5 L 37.5 466 Z " /><path fill="rgb(234,109,103)" stroke="rgb(234,109,103)" stroke-width="1" opacity="1" d="M 672.5 466 L 673 467.5 L 668.5 474 L 669 472.5 L 672.5 466 Z " /><path fill="rgb(234,109,103)" stroke="rgb(234,109,103)" stroke-width="1" opacity="1" d="M 36.5 471 L 37 473.5 L 36 473.5 L 36.5 471 Z " /><path fill="rgb(234,109,103)" stroke="rgb(234,109,103)" stroke-width="1" opacity="1" d="M 667.5 475 L 667 476.5 L 662.5 483 L 664 480.5 L 667.5 475 Z " /><path fill="rgb(234,109,103)" stroke="rgb(234,109,103)" stroke-width="1" opacity="1" d="M 35.5 476 L 36 478.5 L 34.5 483 L 34 478.5 L 35.5 476 Z " /><path fill="rgb(234,109,103)" stroke="rgb(234,109,103)" stroke-width="1" opacity="1" d="M 661.5 484 L 660.5 486 L 661.5 484 Z " /><path fill="rgb(234,109,103)" stroke="rgb(234,109,103)" stroke-width="1" opacity="1" d="M 33.5 485 L 34 487.5 L 33 487.5 L 33.5 485 Z " /><path fill="rgb(234,109,103)" stroke="rgb(234,109,103)" stroke-width="1" opacity="1" d="M 494.5 487 L 492.5 490 L 494.5 487 Z " /><path fill="rgb(234,109,103)" stroke="rgb(234,109,103)" stroke-width="1" opacity="1" d="M 658.5 488 L 656.5 491 L 658.5 488 Z " /><path fill="rgb(234,109,103)" stroke="rgb(234,109,103)" stroke-width="1" opacity="1" d="M 32.5 490 L 33 492.5 L 32 492.5 L 32.5 490 Z " /><path fill="rgb(234,109,103)" stroke="rgb(234,109,103)" stroke-width="1" opacity="1" d="M 655.5 492 L 654 494.5 L 651.5 498 L 652 496.5 L 655.5 492 Z " /><path fill="rgb(234,109,103)" stroke="rgb(234,109,103)" stroke-width="1" opacity="1" d="M 31.5 495 L 32 497.5 L 31 497.5 L 31.5 495 Z " /><path fill="rgb(234,109,103)" stroke="rgb(234,109,103)" stroke-width="1" opacity="1" d="M 649.5 499 L 647 502.5 L 644.5 506 L 642.5 507 L 649.5 499 Z " /><path fill="rgb(234,109,103)" stroke="rgb(234,109,103)" stroke-width="1" opacity="1" d="M 30.5 500 L 31 502.5 L 30 502.5 L 30.5 500 Z " /><path fill="rgb(234,109,103)" stroke="rgb(234,109,103)" stroke-width="1" opacity="1" d="M 29.5 505 L 30 508.5 L 29 508.5 L 29.5 505 Z " /><path fill="rgb(234,109,103)" stroke="rgb(234,109,103)" stroke-width="1" opacity="1" d="M 641.5 508 L 628.5 522 L 625.5 524 L 622 529 L 616.5 533 L 627.5 521 L 641.5 508 Z " /><path fill="rgb(234,109,103)" stroke="rgb(234,109,103)" stroke-width="1" opacity="1" d="M 28.5 511 L 29 513.5 L 28 513.5 L 28.5 511 Z " /><path fill="rgb(234,109,103)" stroke="rgb(234,109,103)" stroke-width="1" opacity="1" d="M 27.5 516 L 28 518.5 L 27 518.5 L 27.5 516 Z " /><path fill="rgb(234,109,103)" stroke="rgb(234,109,103)" stroke-width="1" opacity="1" d="M 220.5 520 L 221.5 522 L 220.5 520 Z " /><path fill="rgb(234,109,103)" stroke="rgb(234,109,103)" stroke-width="1" opacity="1" d="M 26.5 522 L 27 525.5 L 26 525.5 L 26.5 522 Z " /><path fill="rgb(234,109,103)" stroke="rgb(234,109,103)" stroke-width="1" opacity="1" d="M 25.5 528 L 26 531.5 L 25 531.5 L 25.5 528 Z " /><path fill="rgb(234,109,103)" stroke="rgb(234,109,103)" stroke-width="1" opacity="1" d="M 613.5 534 L 615 534.5 L 608.5 540 L 613.5 534 Z " /><path fill="rgb(234,109,103)" stroke="rgb(234,109,103)" stroke-width="1" opacity="1" d="M 24.5 535 L 25 538.5 L 24 538.5 L 24.5 535 Z " /><path fill="rgb(234,109,103)" stroke="rgb(234,109,103)" stroke-width="1" opacity="1" d="M 605.5 541 L 606 543 L 603 544.5 Q 603.8 546.8 601.5 546 L 605.5 541 Z " /><path fill="rgb(234,109,103)" stroke="rgb(234,109,103)" stroke-width="1" opacity="1" d="M 23.5 542 L 24 545.5 L 23 545.5 L 23.5 542 Z " /><path fill="rgb(234,109,103)" stroke="rgb(234,109,103)" stroke-width="1" opacity="1" d="M 599.5 546 L 598 548.5 Q 598.8 550.8 596.5 550 L 595 550.5 L 599.5 546 Z " /><path fill="rgb(234,109,103)" stroke="rgb(234,109,103)" stroke-width="1" opacity="1" d="M 219.5 547 L 218.5 549 L 219.5 547 Z " /><path fill="rgb(234,109,103)" stroke="rgb(234,109,103)" stroke-width="1" opacity="1" d="M 22.5 551 L 23 554.5 L 22 554.5 L 22.5 551 Z " /><path fill="rgb(234,109,103)" stroke="rgb(234,109,103)" stroke-width="1" opacity="1" d="M 593.5 551 L 589.5 556 L 585.5 559 L 588.5 555 L 593.5 551 Z " /><path fill="rgb(234,109,103)" stroke="rgb(234,109,103)" stroke-width="1" opacity="1" d="M 193.5 559 L 197 559.5 L 193.5 560 L 193.5 559 Z " /><path fill="rgb(234,109,103)" stroke="rgb(234,109,103)" stroke-width="1" opacity="1" d="M 583.5 559 L 581.5 562 L 583.5 559 Z " /><path fill="rgb(234,109,103)" stroke="rgb(234,109,103)" stroke-width="1" opacity="1" d="M 21.5 560 L 22 564.5 L 21 564.5 L 21.5 560 Z " /><path fill="rgb(234,109,103)" stroke="rgb(234,109,103)" stroke-width="1" opacity="1" d="M 579.5 562 L 580 563.5 L 569.5 571 L 571.5 568 L 579.5 562 Z " /><path fill="rgb(234,109,103)" stroke="rgb(234,109,103)" stroke-width="1" opacity="1" d="M 567.5 571 L 566.5 573 L 567.5 571 Z " /><path fill="rgb(234,109,103)" stroke="rgb(234,109,103)" stroke-width="1" opacity="1" d="M 20.5 572 L 21 578.5 L 20 578.5 L 20.5 572 Z " /><path fill="rgb(234,109,103)" stroke="rgb(234,109,103)" stroke-width="1" opacity="1" d="M 564.5 573 L 562.5 576 L 557 579 Q 558.3 582 554.5 581 L 541.5 590 L 542.5 588 L 564.5 573 Z " /><path fill="rgb(234,109,103)" stroke="rgb(234,109,103)" stroke-width="1" opacity="1" d="M 539.5 590 L 540 592 L 535.5 594 L 536.5 592 L 539.5 590 Z " /><path fill="rgb(234,109,103)" stroke="rgb(234,109,103)" stroke-width="1" opacity="1" d="M 531.5 595 L 532 597 L 530 596.5 L 531.5 595 Z " /><path fill="rgb(234,109,103)" stroke="rgb(234,109,103)" stroke-width="1" opacity="1" d="M 528.5 597 L 527.5 599 L 528.5 597 Z " /><path fill="rgb(234,109,103)" stroke="rgb(234,109,103)" stroke-width="1" opacity="1" d="M 525.5 599 L 524.5 601 L 517.5 605 L 518.5 603 L 525.5 599 Z " /><path fill="rgb(234,109,103)" stroke="rgb(234,109,103)" stroke-width="1" opacity="1" d="M 515.5 605 L 514.5 607 L 503.5 613 L 504.5 611 L 515.5 605 Z " /><path fill="rgb(234,109,103)" stroke="rgb(234,109,103)" stroke-width="1" opacity="1" d="M 497.5 615 L 495.5 618 L 492.5 619 L 492.5 618 L 497.5 615 Z " /><path fill="rgb(234,109,103)" stroke="rgb(234,109,103)" stroke-width="1" opacity="1" d="M 20.5 617 L 21 622.5 L 20 622.5 L 20.5 617 Z " /><path fill="rgb(234,109,103)" stroke="rgb(234,109,103)" stroke-width="1" opacity="1" d="M 490.5 619 L 489.5 621 L 483.5 624 L 484.5 622 L 490.5 619 Z " /><path fill="rgb(234,109,103)" stroke="rgb(234,109,103)" stroke-width="1" opacity="1" d="M 475.5 627 L 474.5 629 L 469.5 631 L 469.5 630 L 475.5 627 Z " /><path fill="rgb(234,109,103)" stroke="rgb(234,109,103)" stroke-width="1" opacity="1" d="M 21.5 629 L 22 633.5 L 21 633.5 L 21.5 629 Z " /><path fill="rgb(234,109,103)" stroke="rgb(234,109,103)" stroke-width="1" opacity="1" d="M 467.5 631 L 466.5 633 L 461.5 635 L 461.5 634 L 467.5 631 Z " /><path fill="rgb(234,109,103)" stroke="rgb(234,109,103)" stroke-width="1" opacity="1" d="M 459.5 635 L 458.5 637 L 457 636.5 L 459.5 635 Z " /><path fill="rgb(234,109,103)" stroke="rgb(234,109,103)" stroke-width="1" opacity="1" d="M 22.5 638 L 23 641.5 L 22 641.5 L 22.5 638 Z " /><path fill="rgb(234,109,103)" stroke="rgb(234,109,103)" stroke-width="1" opacity="1" d="M 446.5 641 L 448 641.5 L 436.5 647 L 436.5 646 L 446.5 641 Z " /><path fill="rgb(234,109,103)" stroke="rgb(234,109,103)" stroke-width="1" opacity="1" d="M 23.5 645 L 24 649.5 L 23 649.5 L 23.5 645 Z " /><path fill="rgb(234,109,103)" stroke="rgb(234,109,103)" stroke-width="1" opacity="1" d="M 433.5 647 L 435 647.5 L 429.5 650 L 429.5 649 L 433.5 647 Z " /><path fill="rgb(234,109,103)" stroke="rgb(234,109,103)" stroke-width="1" opacity="1" d="M 24.5 651 L 25 654.5 L 24 654.5 L 24.5 651 Z " /><path fill="rgb(234,109,103)" stroke="rgb(234,109,103)" stroke-width="1" opacity="1" d="M 424.5 651 L 426 651.5 L 418.5 655 L 418.5 654 L 424.5 651 Z " /><path fill="rgb(234,109,103)" stroke="rgb(234,109,103)" stroke-width="1" opacity="1" d="M 415.5 655 L 417 655.5 L 411.5 658 L 411.5 657 L 415.5 655 Z " /><path fill="rgb(234,109,103)" stroke="rgb(234,109,103)" stroke-width="1" opacity="1" d="M 25.5 656 L 26 658.5 L 25 658.5 L 25.5 656 Z " /><path fill="rgb(234,109,103)" stroke="rgb(234,109,103)" stroke-width="1" opacity="1" d="M 408.5 658 L 410 658.5 L 406.5 660 L 406.5 659 L 408.5 658 Z " /><path fill="rgb(234,109,103)" stroke="rgb(234,109,103)" stroke-width="1" opacity="1" d="M 401.5 661 L 403 661.5 L 399.5 663 L 399.5 662 L 401.5 661 Z " /><path fill="rgb(234,109,103)" stroke="rgb(234,109,103)" stroke-width="1" opacity="1" d="M 396.5 663 L 398 663.5 L 394.5 665 L 394.5 664 L 396.5 663 Z " /><path fill="rgb(234,109,103)" stroke="rgb(234,109,103)" stroke-width="1" opacity="1" d="M 27.5 665 L 28 667.5 L 27 667.5 L 27.5 665 Z " /><path fill="rgb(234,109,103)" stroke="rgb(234,109,103)" stroke-width="1" opacity="1" d="M 391.5 665 L 393 665.5 L 389.5 667 L 389.5 666 L 391.5 665 Z " /><path fill="rgb(234,109,103)" stroke="rgb(234,109,103)" stroke-width="1" opacity="1" d="M 386.5 667 L 388 667.5 L 381.5 670 L 381.5 669 L 386.5 667 Z " /><path fill="rgb(234,109,103)" stroke="rgb(234,109,103)" stroke-width="1" opacity="1" d="M 28.5 669 L 31 676.5 L 30 676.5 L 28.5 669 Z " /><path fill="rgb(234,109,103)" stroke="rgb(234,109,103)" stroke-width="1" opacity="1" d="M 376.5 671 L 378 671.5 L 371.5 674 L 371.5 673 L 376.5 671 Z " /><path fill="rgb(234,109,103)" stroke="rgb(234,109,103)" stroke-width="1" opacity="1" d="M 363.5 676 L 365 676.5 L 361.5 678 L 361.5 677 L 363.5 676 Z " /><path fill="rgb(234,109,103)" stroke="rgb(234,109,103)" stroke-width="1" opacity="1" d="M 355.5 679 L 357 679.5 L 353.5 681 L 353.5 680 L 355.5 679 Z " /><path fill="rgb(234,109,103)" stroke="rgb(234,109,103)" stroke-width="1" opacity="1" d="M 32.5 680 L 35 684.5 L 33 683.5 L 32.5 680 Z " /><path fill="rgb(234,109,103)" stroke="rgb(234,109,103)" stroke-width="1" opacity="1" d="M 344.5 683 L 346 683.5 L 342.5 685 L 342.5 684 L 344.5 683 Z " /><path fill="rgb(234,109,103)" stroke="rgb(234,109,103)" stroke-width="1" opacity="1" d="M 333.5 687 L 335 687.5 L 328.5 690 L 328.5 689 L 333.5 687 Z " /><path fill="rgb(234,109,103)" stroke="rgb(234,109,103)" stroke-width="1" opacity="1" d="M 36.5 688 Q 43.8 700.7 54.5 710 L 59 713.5 L 56.5 712 L 49 707 L 47.5 704 Q 45.3 704.8 46 702.5 Q 39.1 696.3 36.5 688 Z " /><path fill="rgb(234,109,103)" stroke="rgb(234,109,103)" stroke-width="1" opacity="1" d="M 316.5 693 L 318 693.5 L 313.5 695 L 313.5 694 L 316.5 693 Z " /><path fill="rgb(234,109,103)" stroke="rgb(234,109,103)" stroke-width="1" opacity="1" d="M 310.5 695 L 312 695.5 L 307.5 697 L 307.5 696 L 310.5 695 Z " /><path fill="rgb(234,109,103)" stroke="rgb(234,109,103)" stroke-width="1" opacity="1" d="M 304.5 697 L 306 697.5 L 301.5 699 L 301.5 698 L 304.5 697 Z " /><path fill="rgb(234,109,103)" stroke="rgb(234,109,103)" stroke-width="1" opacity="1" d="M 295.5 700 L 297 700.5 L 289.5 703 L 289.5 702 L 295.5 700 Z " /><path fill="rgb(234,109,103)" stroke="rgb(234,109,103)" stroke-width="1" opacity="1" d="M 286.5 703 L 288 703.5 L 283.5 705 L 283.5 704 L 286.5 703 Z " /><path fill="rgb(234,109,103)" stroke="rgb(234,109,103)" stroke-width="1" opacity="1" d="M 277.5 706 L 279 706.5 L 274.5 708 L 274.5 707 L 277.5 706 Z " /><path fill="rgb(234,109,103)" stroke="rgb(234,109,103)" stroke-width="1" opacity="1" d="M 60.5 714 L 62.5 717 L 60.5 714 Z " /><path fill="rgb(234,109,103)" stroke="rgb(234,109,103)" stroke-width="1" opacity="1" d="M 247.5 715 L 250 715.5 L 247.5 716 L 247.5 715 Z " /><path fill="rgb(234,109,103)" stroke="rgb(234,109,103)" stroke-width="1" opacity="1" d="M 64.5 717 L 71 721.5 L 69.5 721 Q 63.9 721.5 64.5 717 Z " /><path fill="rgb(234,109,103)" stroke="rgb(234,109,103)" stroke-width="1" opacity="1" d="M 236.5 718 L 239 718.5 L 236.5 719 L 236.5 718 Z " /><path fill="rgb(234,109,103)" stroke="rgb(234,109,103)" stroke-width="1" opacity="1" d="M 229.5 720 L 232 720.5 L 229.5 721 L 229.5 720 Z " /><path fill="rgb(234,109,103)" stroke="rgb(234,109,103)" stroke-width="1" opacity="1" d="M 72.5 722 L 75 723.5 L 73.5 724 L 72.5 722 Z " /><path fill="rgb(234,109,103)" stroke="rgb(234,109,103)" stroke-width="1" opacity="1" d="M 220.5 722 L 223 722.5 L 220.5 723 L 220.5 722 Z " /><path fill="rgb(234,109,103)" stroke="rgb(234,109,103)" stroke-width="1" opacity="1" d="M 216.5 723 L 219 723.5 L 216.5 724 L 216.5 723 Z " /><path fill="rgb(234,109,103)" stroke="rgb(234,109,103)" stroke-width="1" opacity="1" d="M 212.5 724 L 215 724.5 L 212.5 725 L 212.5 724 Z " /><path fill="rgb(234,109,103)" stroke="rgb(234,109,103)" stroke-width="1" opacity="1" d="M 78.5 725 L 82 726.5 L 80.5 727 L 78.5 725 Z " /><path fill="rgb(234,109,103)" stroke="rgb(234,109,103)" stroke-width="1" opacity="1" d="M 207.5 725 L 210 725.5 L 207.5 726 L 207.5 725 Z " /><path fill="rgb(234,109,103)" stroke="rgb(234,109,103)" stroke-width="1" opacity="1" d="M 83.5 727 L 88 728.5 L 85.5 729 L 83.5 727 Z " /><path fill="rgb(234,109,103)" stroke="rgb(234,109,103)" stroke-width="1" opacity="1" d="M 196.5 727 L 200 727.5 L 191.5 729 L 191.5 728 L 196.5 727 Z " /><path fill="rgb(234,109,103)" stroke="rgb(234,109,103)" stroke-width="1" opacity="1" d="M 185.5 729 L 188 729.5 L 185.5 730 L 185.5 729 Z " /><path fill="rgb(234,109,103)" stroke="rgb(234,109,103)" stroke-width="1" opacity="1" d="M 92.5 730 L 96 730.5 L 92.5 731 L 92.5 730 Z " /><path fill="rgb(234,109,103)" stroke="rgb(234,109,103)" stroke-width="1" opacity="1" d="M 177.5 730 L 182 730.5 L 177.5 731 L 177.5 730 Z " /><path fill="rgb(234,109,103)" stroke="rgb(234,109,103)" stroke-width="1" opacity="1" d="M 99.5 731 L 103 731.5 L 99.5 732 L 99.5 731 Z " /><path fill="rgb(234,109,103)" stroke="rgb(234,109,103)" stroke-width="1" opacity="1" d="M 169.5 731 L 175 731.5 L 169.5 732 L 169.5 731 Z " /><path fill="rgb(234,109,103)" stroke="rgb(234,109,103)" stroke-width="1" opacity="1" d="M 108.5 732 L 113 732.5 L 108.5 733 L 108.5 732 Z " /><path fill="rgb(234,109,103)" stroke="rgb(234,109,103)" stroke-width="1" opacity="1" d="M 157.5 732 L 164 732.5 L 157.5 733 L 157.5 732 Z " /><path fill="rgb(234,109,103)" stroke="rgb(234,109,103)" stroke-width="1" opacity="1" d="M 122.5 733 L 149 733.5 L 122.5 734 L 122.5 733 Z " /><path fill="rgb(212,36,13)" stroke="rgb(212,36,13)" stroke-width="1" opacity="1" d="M 254.5 58 L 255 60 L 253 59.5 L 254.5 58 Z " /><path fill="rgb(212,36,13)" stroke="rgb(212,36,13)" stroke-width="1" opacity="1" d="M 300.5 58 L 303 58.5 L 300.5 59 L 300.5 58 Z " /><path fill="rgb(212,36,13)" stroke="rgb(212,36,13)" stroke-width="1" opacity="1" d="M 343.5 66 L 348 67.5 L 345.5 68 L 343.5 66 Z " /><path fill="rgb(212,36,13)" stroke="rgb(212,36,13)" stroke-width="1" opacity="1" d="M 353.5 70 L 359 73.5 L 357.5 73 Q 352.8 73.5 353.5 70 Z " /><path fill="rgb(212,36,13)" stroke="rgb(212,36,13)" stroke-width="1" opacity="1" d="M 224.5 74 L 228 76.5 L 225.5 75 L 224.5 74 Z " /><path fill="rgb(212,36,13)" stroke="rgb(212,36,13)" stroke-width="1" opacity="1" d="M 362.5 75 L 363.5 77 Q 360.7 77.7 362.5 75 Z " /><path fill="rgb(212,36,13)" stroke="rgb(212,36,13)" stroke-width="1" opacity="1" d="M 220.5 77 L 222 77.5 L 219.5 79 L 220.5 77 Z " /><path fill="rgb(212,36,13)" stroke="rgb(212,36,13)" stroke-width="1" opacity="1" d="M 365.5 77 L 373 81.5 L 371.5 81 Q 365.9 80.2 365.5 77 Z " /><path fill="rgb(212,36,13)" stroke="rgb(212,36,13)" stroke-width="1" opacity="1" d="M 214.5 82 L 213.5 84 L 214.5 82 Z " /><path fill="rgb(212,36,13)" stroke="rgb(212,36,13)" stroke-width="1" opacity="1" d="M 374.5 82 L 388 90.5 L 386.5 91 Q 385.4 88.3 382 89 Q 383.1 86.3 380.5 87 L 374.5 83 L 373 83.5 L 374.5 82 Z " /><path fill="rgb(212,36,13)" stroke="rgb(212,36,13)" stroke-width="1" opacity="1" d="M 211.5 85 L 212.5 87 L 210 86.5 L 211.5 85 Z " /><path fill="rgb(212,36,13)" stroke="rgb(212,36,13)" stroke-width="1" opacity="1" d="M 264.5 90 L 263.5 92 L 264.5 90 Z " /><path fill="rgb(212,36,13)" stroke="rgb(212,36,13)" stroke-width="1" opacity="1" d="M 208 91 L 210 91.5 L 208 92.5 L 208 91 Z " /><path fill="rgb(212,36,13)" stroke="rgb(212,36,13)" stroke-width="1" opacity="1" d="M 309.5 91 L 310.5 93 L 309.5 91 Z " /><path fill="rgb(212,36,13)" stroke="rgb(212,36,13)" stroke-width="1" opacity="1" d="M 203.5 93 L 203.5 96 Q 200.5 94.5 203.5 93 Z " /><path fill="rgb(212,36,13)" stroke="rgb(212,36,13)" stroke-width="1" opacity="1" d="M 392.5 93 L 393.5 95 L 392.5 93 Z " /><path fill="rgb(212,36,13)" stroke="rgb(212,36,13)" stroke-width="1" opacity="1" d="M 200.5 96 L 198.5 99 L 200.5 96 Z " /><path fill="rgb(212,36,13)" stroke="rgb(212,36,13)" stroke-width="1" opacity="1" d="M 398.5 97 L 411 105.5 L 409.5 105 L 405 103 L 404.5 105 L 404 103.5 Q 406.3 102.3 403.5 101 L 398.5 99 L 398.5 101 Q 395.8 99.8 398 98.5 L 398.5 97 Z " /><path fill="rgb(212,36,13)" stroke="rgb(212,36,13)" stroke-width="1" opacity="1" d="M 310.5 104 L 308.5 107 L 310.5 104 Z " /><path fill="rgb(212,36,13)" stroke="rgb(212,36,13)" stroke-width="1" opacity="1" d="M 412.5 106 L 413.5 108 L 412.5 106 Z " /><path fill="rgb(212,36,13)" stroke="rgb(212,36,13)" stroke-width="1" opacity="1" d="M 246.5 107 L 244.5 110 L 246.5 107 Z " /><path fill="rgb(212,36,13)" stroke="rgb(212,36,13)" stroke-width="1" opacity="1" d="M 193.5 108 L 192.5 110 L 193.5 108 Z " /><path fill="rgb(212,36,13)" stroke="rgb(212,36,13)" stroke-width="1" opacity="1" d="M 420.5 112 L 427 116.5 L 424.5 115 Q 419.8 114.2 420.5 112 Z " /><path fill="rgb(212,36,13)" stroke="rgb(212,36,13)" stroke-width="1" opacity="1" d="M 185.5 114 L 186.5 116 L 184 115.5 L 185.5 114 Z " /><path fill="rgb(212,36,13)" stroke="rgb(212,36,13)" stroke-width="1" opacity="1" d="M 428.5 117 L 429.5 119 L 428.5 117 Z " /><path fill="rgb(212,36,13)" stroke="rgb(212,36,13)" stroke-width="1" opacity="1" d="M 181.5 119 L 182 121 L 180 120.5 L 181.5 119 Z " /><path fill="rgb(212,36,13)" stroke="rgb(212,36,13)" stroke-width="1" opacity="1" d="M 307.5 119 L 310 119.5 L 305.5 121 L 305.5 120 L 307.5 119 Z " /><path fill="rgb(212,36,13)" stroke="rgb(212,36,13)" stroke-width="1" opacity="1" d="M 314.5 119 L 317 119.5 L 314.5 120 L 314.5 119 Z " /><path fill="rgb(212,36,13)" stroke="rgb(212,36,13)" stroke-width="1" opacity="1" d="M 431.5 119 L 437 123.5 L 435.5 123 L 431.5 120 L 430 120.5 L 431.5 119 Z " /><path fill="rgb(212,36,13)" stroke="rgb(212,36,13)" stroke-width="1" opacity="1" d="M 303.5 121 L 299 126.5 L 295.5 132 L 296 130.5 L 299.5 124 L 303.5 121 Z " /><path fill="rgb(212,36,13)" stroke="rgb(212,36,13)" stroke-width="1" opacity="1" d="M 320.5 121 L 321.5 123 L 320.5 121 Z " /><path fill="rgb(212,36,13)" stroke="rgb(212,36,13)" stroke-width="1" opacity="1" d="M 178.5 123 L 177.5 125 L 178.5 123 Z " /><path fill="rgb(212,36,13)" stroke="rgb(212,36,13)" stroke-width="1" opacity="1" d="M 323.5 124 L 326 125.5 L 325.5 127 L 323.5 124 Z " /><path fill="rgb(212,36,13)" stroke="rgb(212,36,13)" stroke-width="1" opacity="1" d="M 234.5 125 L 235 126.5 L 233 127.5 L 234.5 125 Z " /><path fill="rgb(212,36,13)" stroke="rgb(212,36,13)" stroke-width="1" opacity="1" d="M 439.5 125 L 448 131.5 L 445.5 130 Q 440.2 129 439.5 125 Z " /><path fill="rgb(212,36,13)" stroke="rgb(212,36,13)" stroke-width="1" opacity="1" d="M 294.5 127 L 295 128.5 L 293 129.5 L 294.5 127 Z " /><path fill="rgb(212,36,13)" stroke="rgb(212,36,13)" stroke-width="1" opacity="1" d="M 174.5 128 L 177 129.5 L 175 130.5 L 174.5 128 Z " /><path fill="rgb(212,36,13)" stroke="rgb(212,36,13)" stroke-width="1" opacity="1" d="M 327.5 128 L 328 132.5 L 327 132.5 L 327.5 128 Z " /><path fill="rgb(212,36,13)" stroke="rgb(212,36,13)" stroke-width="1" opacity="1" d="M 449.5 132 L 451 135 L 449 134.5 L 449.5 132 Z " /><path fill="rgb(212,36,13)" stroke="rgb(212,36,13)" stroke-width="1" opacity="1" d="M 294.5 133 L 294 134.5 L 292.5 138 L 292 136.5 L 294.5 133 Z " /><path fill="rgb(212,36,13)" stroke="rgb(212,36,13)" stroke-width="1" opacity="1" d="M 170.5 134 L 171.5 136 L 170.5 134 Z " /><path fill="rgb(212,36,13)" stroke="rgb(212,36,13)" stroke-width="1" opacity="1" d="M 327.5 134 L 328 139.5 L 327 139.5 L 327.5 134 Z " /><path fill="rgb(212,36,13)" stroke="rgb(212,36,13)" stroke-width="1" opacity="1" d="M 453.5 135 L 455.5 138 Q 453.8 134.9 452 136.5 L 453.5 135 Z " /><path fill="rgb(212,36,13)" stroke="rgb(212,36,13)" stroke-width="1" opacity="1" d="M 457.5 138 L 459 140.5 L 458 140.5 L 457.5 138 Z " /><path fill="rgb(212,36,13)" stroke="rgb(212,36,13)" stroke-width="1" opacity="1" d="M 291.5 139 L 292 140.5 L 290.5 143 L 290 140.5 L 291.5 139 Z " /><path fill="rgb(212,36,13)" stroke="rgb(212,36,13)" stroke-width="1" opacity="1" d="M 230.5 140 L 231 145.5 L 230 145.5 L 230.5 140 Z " /><path fill="rgb(212,36,13)" stroke="rgb(212,36,13)" stroke-width="1" opacity="1" d="M 461.5 141 L 469 147.5 L 467.5 147 L 461.5 141 Z " /><path fill="rgb(212,36,13)" stroke="rgb(212,36,13)" stroke-width="1" opacity="1" d="M 325.5 142 L 326 145 L 320.5 149 L 325 143.5 L 325.5 142 Z " /><path fill="rgb(212,36,13)" stroke="rgb(212,36,13)" stroke-width="1" opacity="1" d="M 163.5 144 L 162.5 146 L 163.5 144 Z " /><path fill="rgb(212,36,13)" stroke="rgb(212,36,13)" stroke-width="1" opacity="1" d="M 285.5 145 L 286 147.5 L 285 147.5 L 285.5 145 Z " /><path fill="rgb(212,36,13)" stroke="rgb(212,36,13)" stroke-width="1" opacity="1" d="M 288.5 147 L 289 149.5 L 288 149.5 L 288.5 147 Z " /><path fill="rgb(212,36,13)" stroke="rgb(212,36,13)" stroke-width="1" opacity="1" d="M 470.5 148 L 478 154.5 L 475.5 153 L 470.5 148 Z " /><path fill="rgb(212,36,13)" stroke="rgb(212,36,13)" stroke-width="1" opacity="1" d="M 315.5 151 L 314.5 153 L 315.5 151 Z " /><path fill="rgb(212,36,13)" stroke="rgb(212,36,13)" stroke-width="1" opacity="1" d="M 157.5 153 L 156.5 155 L 157.5 153 Z " /><path fill="rgb(212,36,13)" stroke="rgb(212,36,13)" stroke-width="1" opacity="1" d="M 309.5 155 L 308.5 157 L 309.5 155 Z " /><path fill="rgb(212,36,13)" stroke="rgb(212,36,13)" stroke-width="1" opacity="1" d="M 480.5 156 L 482.5 159 Q 480.8 155.9 479 157.5 L 480.5 156 Z " /><path fill="rgb(212,36,13)" stroke="rgb(212,36,13)" stroke-width="1" opacity="1" d="M 288.5 157 L 290.5 160 Q 292.8 159.3 292 161.5 L 290.5 161 L 288 159.5 L 288.5 157 Z " /><path fill="rgb(212,36,13)" stroke="rgb(212,36,13)" stroke-width="1" opacity="1" d="M 298.5 160 L 302 160.5 L 295.5 162 L 295.5 161 L 298.5 160 Z " /><path fill="rgb(212,36,13)" stroke="rgb(212,36,13)" stroke-width="1" opacity="1" d="M 484.5 160 L 489 163.5 L 486.5 162 L 484.5 160 Z " /><path fill="rgb(212,36,13)" stroke="rgb(212,36,13)" stroke-width="1" opacity="1" d="M 154.5 164 L 155 165.5 L 153 166.5 L 154.5 164 Z " /><path fill="rgb(212,36,13)" stroke="rgb(212,36,13)" stroke-width="1" opacity="1" d="M 493.5 167 L 495.5 170 L 493.5 167 Z " /><path fill="rgb(212,36,13)" stroke="rgb(212,36,13)" stroke-width="1" opacity="1" d="M 229.5 170 L 231 172.5 L 230 172.5 L 229.5 170 Z " /><path fill="rgb(212,36,13)" stroke="rgb(212,36,13)" stroke-width="1" opacity="1" d="M 498.5 171 L 508 179.5 L 506 180 Q 507.1 177.3 504.5 178 Q 502.8 174.9 501 176.5 Q 503.7 174.8 499.5 173 L 497.5 174 L 498 172.5 L 498.5 171 Z " /><path fill="rgb(212,36,13)" stroke="rgb(212,36,13)" stroke-width="1" opacity="1" d="M 202.5 172 L 201.5 174 L 202.5 172 Z " /><path fill="rgb(212,36,13)" stroke="rgb(212,36,13)" stroke-width="1" opacity="1" d="M 199.5 175 L 196.5 179 L 199.5 175 Z " /><path fill="rgb(212,36,13)" stroke="rgb(212,36,13)" stroke-width="1" opacity="1" d="M 194.5 180 L 193.5 182 L 194.5 180 Z " /><path fill="rgb(212,36,13)" stroke="rgb(212,36,13)" stroke-width="1" opacity="1" d="M 509.5 181 L 541 210.5 L 539.5 210 L 537 208.5 L 533.5 204 L 530.5 202 L 529 199 Q 526.3 200.1 527 197.5 L 520.5 193 L 519 193.5 L 520 191.5 L 516 189 Q 517.1 186.3 514.5 187 L 509.5 181 Z " /><path fill="rgb(212,36,13)" stroke="rgb(212,36,13)" stroke-width="1" opacity="1" d="M 232.5 189 L 233 192.5 L 232 192.5 L 232.5 189 Z " /><path fill="rgb(212,36,13)" stroke="rgb(212,36,13)" stroke-width="1" opacity="1" d="M 133.5 193 L 132.5 195 L 133.5 193 Z " /><path fill="rgb(212,36,13)" stroke="rgb(212,36,13)" stroke-width="1" opacity="1" d="M 231.5 196 L 232 198.5 L 231 198.5 L 231.5 196 Z " /><path fill="rgb(212,36,13)" stroke="rgb(212,36,13)" stroke-width="1" opacity="1" d="M 178.5 201 L 179 203 L 177 202.5 L 178.5 201 Z " /><path fill="rgb(212,36,13)" stroke="rgb(212,36,13)" stroke-width="1" opacity="1" d="M 125.5 207 L 126 208.5 L 124 209.5 L 125.5 207 Z " /><path fill="rgb(212,36,13)" stroke="rgb(212,36,13)" stroke-width="1" opacity="1" d="M 542.5 212 L 548.5 219 L 543 215 L 542.5 212 Z " /><path fill="rgb(212,36,13)" stroke="rgb(212,36,13)" stroke-width="1" opacity="1" d="M 222.5 217 L 223 218.5 L 221 219.5 L 222.5 217 Z " /><path fill="rgb(212,36,13)" stroke="rgb(212,36,13)" stroke-width="1" opacity="1" d="M 552.5 222 L 556.5 227 L 552.5 222 Z " /><path fill="rgb(212,36,13)" stroke="rgb(212,36,13)" stroke-width="1" opacity="1" d="M 117.5 223 L 118 224.5 L 116 225.5 L 117.5 223 Z " /><path fill="rgb(212,36,13)" stroke="rgb(212,36,13)" stroke-width="1" opacity="1" d="M 217.5 226 L 216.5 228 L 217.5 226 Z " /><path fill="rgb(212,36,13)" stroke="rgb(212,36,13)" stroke-width="1" opacity="1" d="M 558.5 228 L 571.5 242 L 569 240.5 L 562.5 233 Q 560.3 233.8 561 231.5 L 558.5 228 Z " /><path fill="rgb(212,36,13)" stroke="rgb(212,36,13)" stroke-width="1" opacity="1" d="M 227.5 232 L 226.5 234 L 222.5 235 L 222.5 234 L 227.5 232 Z " /><path fill="rgb(212,36,13)" stroke="rgb(212,36,13)" stroke-width="1" opacity="1" d="M 231.5 232 L 238 234.5 L 236.5 235 L 231.5 233 L 231.5 232 Z " /><path fill="rgb(212,36,13)" stroke="rgb(212,36,13)" stroke-width="1" opacity="1" d="M 219.5 236 L 220 237.5 L 214.5 244 L 215 242.5 L 219.5 236 Z " /><path fill="rgb(212,36,13)" stroke="rgb(212,36,13)" stroke-width="1" opacity="1" d="M 241.5 237 Q 243.8 236.3 243 238.5 Q 246.6 240.4 246 246.5 L 245 246.5 L 245 243.5 L 241.5 237 Z " /><path fill="rgb(212,36,13)" stroke="rgb(212,36,13)" stroke-width="1" opacity="1" d="M 109.5 240 L 110 241.5 L 108 242.5 L 109.5 240 Z " /><path fill="rgb(212,36,13)" stroke="rgb(212,36,13)" stroke-width="1" opacity="1" d="M 462.5 241 L 465 241.5 L 462.5 242 L 462.5 241 Z " /><path fill="rgb(212,36,13)" stroke="rgb(212,36,13)" stroke-width="1" opacity="1" d="M 207.5 242 L 206.5 244 L 207.5 242 Z " /><path fill="rgb(212,36,13)" stroke="rgb(212,36,13)" stroke-width="1" opacity="1" d="M 466.5 242 L 470 243.5 L 468.5 244 L 466.5 242 Z " /><path fill="rgb(212,36,13)" stroke="rgb(212,36,13)" stroke-width="1" opacity="1" d="M 572.5 243 L 580.5 252 L 578 251 L 572.5 243 Z " /><path fill="rgb(212,36,13)" stroke="rgb(212,36,13)" stroke-width="1" opacity="1" d="M 451.5 244 L 452 246 L 448.5 248 L 451.5 244 Z " /><path fill="rgb(212,36,13)" stroke="rgb(212,36,13)" stroke-width="1" opacity="1" d="M 471.5 245 Q 473.8 244.3 473 246.5 Q 476.5 247 476 251.5 L 475 251.5 L 475 249.5 L 471.5 245 Z " /><path fill="rgb(212,36,13)" stroke="rgb(212,36,13)" stroke-width="1" opacity="1" d="M 210.5 247 L 212 249.5 L 209.5 254 L 209 252.5 L 210.5 247 Z " /><path fill="rgb(212,36,13)" stroke="rgb(212,36,13)" stroke-width="1" opacity="1" d="M 447.5 249 L 447 250.5 L 446.5 252 L 446 250.5 L 447.5 249 Z " /><path fill="rgb(212,36,13)" stroke="rgb(212,36,13)" stroke-width="1" opacity="1" d="M 245.5 250 L 246 252.5 L 245 252.5 L 245.5 250 Z " /><path fill="rgb(212,36,13)" stroke="rgb(212,36,13)" stroke-width="1" opacity="1" d="M 206 255 Q 208.7 253.9 208 256.5 L 206 257.5 L 206 255 Z " /><path fill="rgb(212,36,13)" stroke="rgb(212,36,13)" stroke-width="1" opacity="1" d="M 477.5 255 L 478 258.5 L 477 258.5 L 477.5 255 Z " /><path fill="rgb(212,36,13)" stroke="rgb(212,36,13)" stroke-width="1" opacity="1" d="M 102.5 256 L 103 257.5 L 101 258.5 L 102.5 256 Z " /><path fill="rgb(212,36,13)" stroke="rgb(212,36,13)" stroke-width="1" opacity="1" d="M 583.5 256 L 591 262.5 L 587.5 260 Q 585.3 260.8 586 258.5 Q 584.7 255.8 583.5 258 L 581.5 259 L 583.5 256 Z " /><path fill="rgb(212,36,13)" stroke="rgb(212,36,13)" stroke-width="1" opacity="1" d="M 442.5 257 L 443 258.5 L 440.5 263 L 440 261.5 L 442.5 257 Z " /><path fill="rgb(212,36,13)" stroke="rgb(212,36,13)" stroke-width="1" opacity="1" d="M 242.5 258 L 242 259.5 Q 242.8 261.8 240.5 261 L 239 261.5 Q 238.3 259.3 240.5 260 L 242.5 258 Z " /><path fill="rgb(212,36,13)" stroke="rgb(212,36,13)" stroke-width="1" opacity="1" d="M 234.5 264 L 236 264.5 L 233 266.5 Q 235.2 267.8 232.5 269 L 232 266.5 L 234.5 264 Z " /><path fill="rgb(212,36,13)" stroke="rgb(212,36,13)" stroke-width="1" opacity="1" d="M 591.5 264 L 597 270.5 L 596 270.5 L 595.5 269 L 594 269.5 L 595 268.5 L 591.5 264 Z " /><path fill="rgb(212,36,13)" stroke="rgb(212,36,13)" stroke-width="1" opacity="1" d="M 474.5 265 L 474 266.5 L 472.5 269 L 472 267.5 L 474.5 265 Z " /><path fill="rgb(212,36,13)" stroke="rgb(212,36,13)" stroke-width="1" opacity="1" d="M 228.5 268 L 231 269.5 L 229.5 270 L 227 269.5 L 228.5 268 Z " /><path fill="rgb(212,36,13)" stroke="rgb(212,36,13)" stroke-width="1" opacity="1" d="M 470.5 269 L 469.5 271 L 470.5 269 Z " /><path fill="rgb(212,36,13)" stroke="rgb(212,36,13)" stroke-width="1" opacity="1" d="M 205.5 271 Q 207.8 270.3 207 272.5 L 205.5 271 Z " /><path fill="rgb(212,36,13)" stroke="rgb(212,36,13)" stroke-width="1" opacity="1" d="M 223.5 271 L 222.5 273 L 218.5 274 L 218.5 273 L 223.5 271 Z " /><path fill="rgb(212,36,13)" stroke="rgb(212,36,13)" stroke-width="1" opacity="1" d="M 437.5 271 L 438 273.5 L 437 273.5 L 437.5 271 Z " /><path fill="rgb(212,36,13)" stroke="rgb(212,36,13)" stroke-width="1" opacity="1" d="M 597.5 272 L 603 276.5 L 601.5 276 L 599.5 277 L 600 275.5 Q 600.8 273.3 598.5 274 L 597.5 272 Z " /><path fill="rgb(212,36,13)" stroke="rgb(212,36,13)" stroke-width="1" opacity="1" d="M 208.5 274 L 211 274.5 L 208.5 275 L 208.5 274 Z " /><path fill="rgb(212,36,13)" stroke="rgb(212,36,13)" stroke-width="1" opacity="1" d="M 212.5 274 L 216 274.5 L 212.5 275 L 212.5 274 Z " /><path fill="rgb(212,36,13)" stroke="rgb(212,36,13)" stroke-width="1" opacity="1" d="M 460.5 276 L 461.5 278 Q 460 275.5 458.5 279 L 456.5 280 L 457.5 278 L 460.5 276 Z " /><path fill="rgb(212,36,13)" stroke="rgb(212,36,13)" stroke-width="1" opacity="1" d="M 214.5 277 L 218 277.5 L 214.5 278 L 214.5 277 Z " /><path fill="rgb(212,36,13)" stroke="rgb(212,36,13)" stroke-width="1" opacity="1" d="M 437.5 280 L 442 283.5 L 440.5 284 L 437 281.5 L 437.5 280 Z " /><path fill="rgb(212,36,13)" stroke="rgb(212,36,13)" stroke-width="1" opacity="1" d="M 604 280 L 608 282.5 L 604 281.5 L 604 280 Z " /><path fill="rgb(212,36,13)" stroke="rgb(212,36,13)" stroke-width="1" opacity="1" d="M 609.5 285 L 615 291.5 L 610 287.5 L 609.5 285 Z " /><path fill="rgb(212,36,13)" stroke="rgb(212,36,13)" stroke-width="1" opacity="1" d="M 615.5 293 L 614.5 295 L 615.5 293 Z " /><path fill="rgb(212,36,13)" stroke="rgb(212,36,13)" stroke-width="1" opacity="1" d="M 619.5 297 L 623 302.5 L 621 303.5 L 622 301.5 Q 617.8 300.3 619.5 297 Z " /><path fill="rgb(212,36,13)" stroke="rgb(212,36,13)" stroke-width="1" opacity="1" d="M 624.5 304 L 629 309.5 L 626 307.5 L 624.5 304 Z " /><path fill="rgb(212,36,13)" stroke="rgb(212,36,13)" stroke-width="1" opacity="1" d="M 628.5 311 L 629.5 313 L 628.5 311 Z " /><path fill="rgb(212,36,13)" stroke="rgb(212,36,13)" stroke-width="1" opacity="1" d="M 175.5 313 L 176 315.5 L 175 315.5 L 175.5 313 Z " /><path fill="rgb(212,36,13)" stroke="rgb(212,36,13)" stroke-width="1" opacity="1" d="M 631.5 313 L 632.5 315 L 631.5 313 Z " /><path fill="rgb(212,36,13)" stroke="rgb(212,36,13)" stroke-width="1" opacity="1" d="M 633.5 316 L 635.5 319 Q 633.3 319.8 634 317.5 L 633.5 316 Z " /><path fill="rgb(212,36,13)" stroke="rgb(212,36,13)" stroke-width="1" opacity="1" d="M 174.5 317 L 175 318.5 L 173.5 322 L 173 319.5 L 174.5 317 Z " /><path fill="rgb(212,36,13)" stroke="rgb(212,36,13)" stroke-width="1" opacity="1" d="M 636.5 320 L 638.5 323 L 636.5 320 Z " /><path fill="rgb(212,36,13)" stroke="rgb(212,36,13)" stroke-width="1" opacity="1" d="M 119.5 323 L 120 325.5 L 119 325.5 L 119.5 323 Z " /><path fill="rgb(212,36,13)" stroke="rgb(212,36,13)" stroke-width="1" opacity="1" d="M 639.5 324 L 641.5 327 Q 639.3 327.8 640 325.5 L 639.5 324 Z " /><path fill="rgb(212,36,13)" stroke="rgb(212,36,13)" stroke-width="1" opacity="1" d="M 76.5 325 L 77.5 327 L 76.5 325 Z " /><path fill="rgb(212,36,13)" stroke="rgb(212,36,13)" stroke-width="1" opacity="1" d="M 642.5 328 L 649 336.5 L 645.5 338 L 647 335.5 L 646 334.5 L 642 329.5 L 642.5 328 Z " /><path fill="rgb(212,36,13)" stroke="rgb(212,36,13)" stroke-width="1" opacity="1" d="M 170.5 329 L 170 330.5 L 169.5 332 L 169 330.5 L 170.5 329 Z " /><path fill="rgb(212,36,13)" stroke="rgb(212,36,13)" stroke-width="1" opacity="1" d="M 375.5 333 L 379 333.5 L 375.5 334 L 375.5 333 Z " /><path fill="rgb(212,36,13)" stroke="rgb(212,36,13)" stroke-width="1" opacity="1" d="M 380.5 333 L 384 334.5 L 382.5 335 L 380.5 333 Z " /><path fill="rgb(212,36,13)" stroke="rgb(212,36,13)" stroke-width="1" opacity="1" d="M 372.5 334 L 374 334.5 L 369.5 337 L 370.5 335 L 372.5 334 Z " /><path fill="rgb(212,36,13)" stroke="rgb(212,36,13)" stroke-width="1" opacity="1" d="M 385.5 335 L 391 339.5 L 386.5 336 L 385.5 335 Z " /><path fill="rgb(212,36,13)" stroke="rgb(212,36,13)" stroke-width="1" opacity="1" d="M 167.5 337 L 173 343.5 L 171 342.5 L 167.5 337 Z " /><path fill="rgb(212,36,13)" stroke="rgb(212,36,13)" stroke-width="1" opacity="1" d="M 367.5 337 L 367 338.5 L 364.5 342 L 366 339.5 L 367.5 337 Z " /><path fill="rgb(212,36,13)" stroke="rgb(212,36,13)" stroke-width="1" opacity="1" d="M 649.5 338 L 655 345.5 L 653 344.5 L 649.5 338 Z " /><path fill="rgb(212,36,13)" stroke="rgb(212,36,13)" stroke-width="1" opacity="1" d="M 392.5 341 Q 394.8 342.8 394 347.5 L 393 347.5 L 392.5 341 Z " /><path fill="rgb(212,36,13)" stroke="rgb(212,36,13)" stroke-width="1" opacity="1" d="M 645.5 341 L 644.5 343 L 645.5 341 Z " /><path fill="rgb(212,36,13)" stroke="rgb(212,36,13)" stroke-width="1" opacity="1" d="M 114.5 342 L 115 345.5 L 114 345.5 L 114.5 342 Z " /><path fill="rgb(212,36,13)" stroke="rgb(212,36,13)" stroke-width="1" opacity="1" d="M 363.5 343 L 363 344.5 L 361.5 347 L 361 345.5 L 363.5 343 Z " /><path fill="rgb(212,36,13)" stroke="rgb(212,36,13)" stroke-width="1" opacity="1" d="M 173.5 345 L 174 347.5 L 173 347.5 L 173.5 345 Z " /><path fill="rgb(212,36,13)" stroke="rgb(212,36,13)" stroke-width="1" opacity="1" d="M 360.5 348 L 360 349.5 L 358.5 353 L 358 351.5 L 360.5 348 Z " /><path fill="rgb(212,36,13)" stroke="rgb(212,36,13)" stroke-width="1" opacity="1" d="M 656.5 349 L 657.5 351 L 656.5 349 Z " /><path fill="rgb(212,36,13)" stroke="rgb(212,36,13)" stroke-width="1" opacity="1" d="M 657.5 352 Q 659.8 351.3 659 353.5 L 659.5 355 L 657.5 352 Z " /><path fill="rgb(212,36,13)" stroke="rgb(212,36,13)" stroke-width="1" opacity="1" d="M 173.5 353 L 174 356.5 L 173 356.5 L 173.5 353 Z " /><path fill="rgb(212,36,13)" stroke="rgb(212,36,13)" stroke-width="1" opacity="1" d="M 390.5 358 L 392 358.5 L 388 361.5 L 390.5 358 Z " /><path fill="rgb(212,36,13)" stroke="rgb(212,36,13)" stroke-width="1" opacity="1" d="M 171.5 359 L 165.5 366 L 171.5 359 Z " /><path fill="rgb(212,36,13)" stroke="rgb(212,36,13)" stroke-width="1" opacity="1" d="M 354.5 362 L 355 364.5 L 354 364.5 L 354.5 362 Z " /><path fill="rgb(212,36,13)" stroke="rgb(212,36,13)" stroke-width="1" opacity="1" d="M 386.5 362 L 384.5 365 L 386.5 362 Z " /><path fill="rgb(212,36,13)" stroke="rgb(212,36,13)" stroke-width="1" opacity="1" d="M 382.5 365 L 381.5 367 L 382.5 365 Z " /><path fill="rgb(212,36,13)" stroke="rgb(212,36,13)" stroke-width="1" opacity="1" d="M 379.5 367 L 378.5 369 L 379.5 367 Z " /><path fill="rgb(212,36,13)" stroke="rgb(212,36,13)" stroke-width="1" opacity="1" d="M 591.5 367 Q 598.3 369.3 602 374.5 L 601.5 376 L 597.5 371 Q 591.9 370.2 591.5 367 Z " /><path fill="rgb(212,36,13)" stroke="rgb(212,36,13)" stroke-width="1" opacity="1" d="M 376.5 369 L 374.5 372 L 373 371.5 L 376.5 369 Z " /><path fill="rgb(212,36,13)" stroke="rgb(212,36,13)" stroke-width="1" opacity="1" d="M 580.5 369 L 578.5 372 Q 576.3 371.3 577 373.5 L 571 383 L 569 382.5 L 570 380 Q 572.7 381.1 572 378.5 L 578.5 370 L 580.5 369 Z " /><path fill="rgb(212,36,13)" stroke="rgb(212,36,13)" stroke-width="1" opacity="1" d="M 353.5 370 L 355 372.5 L 353 371.5 L 353.5 370 Z " /><path fill="rgb(212,36,13)" stroke="rgb(212,36,13)" stroke-width="1" opacity="1" d="M 133.5 372 Q 136.1 371.2 135 374.5 L 138 376.5 L 136.5 377 L 134 376 L 133.5 372 Z " /><path fill="rgb(212,36,13)" stroke="rgb(212,36,13)" stroke-width="1" opacity="1" d="M 142.5 376 L 146 376.5 L 142.5 377 L 142.5 376 Z " /><path fill="rgb(212,36,13)" stroke="rgb(212,36,13)" stroke-width="1" opacity="1" d="M 61.5 383 L 62 390.5 L 61 390.5 L 61.5 383 Z " /><path fill="rgb(212,36,13)" stroke="rgb(212,36,13)" stroke-width="1" opacity="1" d="M 566.5 388 L 567.5 390 L 566.5 388 Z " /><path fill="rgb(212,36,13)" stroke="rgb(212,36,13)" stroke-width="1" opacity="1" d="M 602.5 389 L 603 390.5 L 602.5 393 Q 600.3 393.8 601 391.5 L 602.5 389 Z " /><path fill="rgb(212,36,13)" stroke="rgb(212,36,13)" stroke-width="1" opacity="1" d="M 599.5 394 L 595.5 399 L 589.5 403 L 591.5 400 L 596 398 Q 594.9 395.3 597.5 396 L 599.5 394 Z " /><path fill="rgb(212,36,13)" stroke="rgb(212,36,13)" stroke-width="1" opacity="1" d="M 564.5 405 L 566.5 409 L 570 409.5 L 566.5 410 Q 562.8 408.8 564.5 405 Z " /><path fill="rgb(212,36,13)" stroke="rgb(212,36,13)" stroke-width="1" opacity="1" d="M 61.5 407 L 62 413.5 L 61 413.5 L 61.5 407 Z " /><path fill="rgb(212,36,13)" stroke="rgb(212,36,13)" stroke-width="1" opacity="1" d="M 575.5 408 L 578 408.5 L 572.5 410 L 572.5 409 L 575.5 408 Z " /><path fill="rgb(212,36,13)" stroke="rgb(212,36,13)" stroke-width="1" opacity="1" d="M 572.5 411 L 571.5 413 L 572.5 411 Z " /><path fill="rgb(212,36,13)" stroke="rgb(212,36,13)" stroke-width="1" opacity="1" d="M 289.5 426 L 292 426.5 L 289.5 427 L 289.5 426 Z " /><path fill="rgb(212,36,13)" stroke="rgb(212,36,13)" stroke-width="1" opacity="1" d="M 298.5 426 Q 302.3 425.3 303 427.5 L 301.5 428 L 298.5 427 L 298.5 426 Z " /><path fill="rgb(212,36,13)" stroke="rgb(212,36,13)" stroke-width="1" opacity="1" d="M 666.5 426 L 665.5 428 L 666.5 426 Z " /><path fill="rgb(212,36,13)" stroke="rgb(212,36,13)" stroke-width="1" opacity="1" d="M 287.5 427 L 286.5 429 Q 284.3 428.3 285 430.5 L 281 433.5 L 285.5 428 L 287.5 427 Z " /><path fill="rgb(212,36,13)" stroke="rgb(212,36,13)" stroke-width="1" opacity="1" d="M 305.5 429 L 310 434.5 L 309 434.5 L 305.5 429 Z " /><path fill="rgb(212,36,13)" stroke="rgb(212,36,13)" stroke-width="1" opacity="1" d="M 278 433 L 280 433.5 L 278 434.5 L 278 433 Z " /><path fill="rgb(212,36,13)" stroke="rgb(212,36,13)" stroke-width="1" opacity="1" d="M 310.5 436 L 311 438.5 L 310 438.5 L 310.5 436 Z " /><path fill="rgb(212,36,13)" stroke="rgb(212,36,13)" stroke-width="1" opacity="1" d="M 658.5 436 L 656.5 439 L 658.5 436 Z " /><path fill="rgb(212,36,13)" stroke="rgb(212,36,13)" stroke-width="1" opacity="1" d="M 279.5 437 L 278.5 439 L 279.5 437 Z " /><path fill="rgb(212,36,13)" stroke="rgb(212,36,13)" stroke-width="1" opacity="1" d="M 276.5 441 L 277 442.5 L 274.5 447 L 274 444.5 L 276.5 441 Z " /><path fill="rgb(212,36,13)" stroke="rgb(212,36,13)" stroke-width="1" opacity="1" d="M 310.5 444 L 311 446.5 Q 309.6 452.6 304.5 455 L 308 450.5 L 310.5 444 Z " /><path fill="rgb(212,36,13)" stroke="rgb(212,36,13)" stroke-width="1" opacity="1" d="M 95.5 445 L 99 445.5 L 95.5 446 L 95.5 445 Z " /><path fill="rgb(212,36,13)" stroke="rgb(212,36,13)" stroke-width="1" opacity="1" d="M 272.5 447 L 274 449.5 L 273 449.5 L 272.5 447 Z " /><path fill="rgb(212,36,13)" stroke="rgb(212,36,13)" stroke-width="1" opacity="1" d="M 646.5 447 L 644.5 450 L 646.5 447 Z " /><path fill="rgb(212,36,13)" stroke="rgb(212,36,13)" stroke-width="1" opacity="1" d="M 105.5 448 L 111 452.5 L 110.5 455 L 105.5 448 Z " /><path fill="rgb(212,36,13)" stroke="rgb(212,36,13)" stroke-width="1" opacity="1" d="M 86.5 449 L 88 449.5 L 85.5 451 L 86.5 449 Z " /><path fill="rgb(212,36,13)" stroke="rgb(212,36,13)" stroke-width="1" opacity="1" d="M 83.5 452 L 85 452.5 L 82 454.5 L 83.5 452 Z " /><path fill="rgb(212,36,13)" stroke="rgb(212,36,13)" stroke-width="1" opacity="1" d="M 269.5 454 L 269 455.5 L 268.5 457 L 268 455.5 L 269.5 454 Z " /><path fill="rgb(212,36,13)" stroke="rgb(212,36,13)" stroke-width="1" opacity="1" d="M 271.5 455 L 272 457.5 L 271 457.5 L 271.5 455 Z " /><path fill="rgb(212,36,13)" stroke="rgb(212,36,13)" stroke-width="1" opacity="1" d="M 81.5 456 L 81 457.5 L 79.5 460 L 80 458.5 L 81.5 456 Z " /><path fill="rgb(212,36,13)" stroke="rgb(212,36,13)" stroke-width="1" opacity="1" d="M 301.5 456 L 303 456.5 L 299.5 459 L 301.5 456 Z " /><path fill="rgb(212,36,13)" stroke="rgb(212,36,13)" stroke-width="1" opacity="1" d="M 491.5 458 L 492 460 L 490 459.5 L 491.5 458 Z " /><path fill="rgb(212,36,13)" stroke="rgb(212,36,13)" stroke-width="1" opacity="1" d="M 633.5 458 L 632.5 460 L 633.5 458 Z " /><path fill="rgb(212,36,13)" stroke="rgb(212,36,13)" stroke-width="1" opacity="1" d="M 112.5 459 L 113 461.5 L 112 461.5 L 112.5 459 Z " /><path fill="rgb(212,36,13)" stroke="rgb(212,36,13)" stroke-width="1" opacity="1" d="M 295.5 460 L 294.5 462 L 295.5 460 Z " /><path fill="rgb(212,36,13)" stroke="rgb(212,36,13)" stroke-width="1" opacity="1" d="M 479.5 461 L 482 461.5 L 479.5 462 L 479.5 461 Z " /><path fill="rgb(212,36,13)" stroke="rgb(212,36,13)" stroke-width="1" opacity="1" d="M 486.5 461 L 489 461.5 L 486.5 462 L 486.5 461 Z " /><path fill="rgb(212,36,13)" stroke="rgb(212,36,13)" stroke-width="1" opacity="1" d="M 476.5 462 L 478 462.5 L 472.5 467 L 472 465.5 L 476.5 462 Z " /><path fill="rgb(212,36,13)" stroke="rgb(212,36,13)" stroke-width="1" opacity="1" d="M 490.5 462 L 494 463 L 494 465 Q 496.7 463.9 496 466.5 Q 499.7 467.2 499 472.5 L 498 472.5 L 498 469.5 L 491.5 463 L 490.5 462 Z " /><path fill="rgb(212,36,13)" stroke="rgb(212,36,13)" stroke-width="1" opacity="1" d="M 77.5 463 L 78 464.5 L 74.5 472 L 74 468.5 L 77.5 463 Z " /><path fill="rgb(212,36,13)" stroke="rgb(212,36,13)" stroke-width="1" opacity="1" d="M 270.5 463 Q 273.1 462.2 272 465.5 L 277 467.5 L 273.5 468 L 270.5 463 Z " /><path fill="rgb(212,36,13)" stroke="rgb(212,36,13)" stroke-width="1" opacity="1" d="M 626.5 463 L 624.5 466 L 626.5 463 Z " /><path fill="rgb(212,36,13)" stroke="rgb(212,36,13)" stroke-width="1" opacity="1" d="M 287.5 464 L 289 464.5 L 286.5 466 L 287.5 464 Z " /><path fill="rgb(212,36,13)" stroke="rgb(212,36,13)" stroke-width="1" opacity="1" d="M 279 467 L 281 467.5 L 279 468.5 L 279 467 Z " /><path fill="rgb(212,36,13)" stroke="rgb(212,36,13)" stroke-width="1" opacity="1" d="M 110.5 468 L 111 469.5 L 108.5 473 L 109 471.5 L 110.5 468 Z " /><path fill="rgb(212,36,13)" stroke="rgb(212,36,13)" stroke-width="1" opacity="1" d="M 284.5 468 L 286 468.5 L 282.5 470 L 282.5 469 L 284.5 468 Z " /><path fill="rgb(212,36,13)" stroke="rgb(212,36,13)" stroke-width="1" opacity="1" d="M 470.5 468 L 469.5 470 L 470.5 468 Z " /><path fill="rgb(212,36,13)" stroke="rgb(212,36,13)" stroke-width="1" opacity="1" d="M 73.5 473 L 74 475.5 L 73 475.5 L 73.5 473 Z " /><path fill="rgb(212,36,13)" stroke="rgb(212,36,13)" stroke-width="1" opacity="1" d="M 467.5 473 L 467 474.5 L 464.5 480 L 464 478.5 L 467.5 473 Z " /><path fill="rgb(212,36,13)" stroke="rgb(212,36,13)" stroke-width="1" opacity="1" d="M 105.5 474 L 107 474.5 L 96.5 482 L 97.5 480 L 105.5 474 Z " /><path fill="rgb(212,36,13)" stroke="rgb(212,36,13)" stroke-width="1" opacity="1" d="M 72.5 478 L 73 483.5 L 72 483.5 L 72.5 478 Z " /><path fill="rgb(212,36,13)" stroke="rgb(212,36,13)" stroke-width="1" opacity="1" d="M 94.5 482 L 93.5 484 L 94.5 482 Z " /><path fill="rgb(212,36,13)" stroke="rgb(212,36,13)" stroke-width="1" opacity="1" d="M 462.5 483 L 462 484.5 L 461.5 486 L 461 484.5 L 462.5 483 Z " /><path fill="rgb(212,36,13)" stroke="rgb(212,36,13)" stroke-width="1" opacity="1" d="M 496.5 486 L 492.5 491 L 486.5 495 L 487.5 493 L 496.5 486 Z " /><path fill="rgb(212,36,13)" stroke="rgb(212,36,13)" stroke-width="1" opacity="1" d="M 659.5 486 L 658.5 488 L 659.5 486 Z " /><path fill="rgb(212,36,13)" stroke="rgb(212,36,13)" stroke-width="1" opacity="1" d="M 651.5 496 L 650.5 498 L 651.5 496 Z " /><path fill="rgb(212,36,13)" stroke="rgb(212,36,13)" stroke-width="1" opacity="1" d="M 477.5 499 L 478 501 L 475 500.5 L 477.5 499 Z " /><path fill="rgb(212,36,13)" stroke="rgb(212,36,13)" stroke-width="1" opacity="1" d="M 483.5 499 L 483.5 502 Q 480.5 500.5 483.5 499 Z " /><path fill="rgb(212,36,13)" stroke="rgb(212,36,13)" stroke-width="1" opacity="1" d="M 468.5 502 L 471 502.5 L 468.5 503 L 468.5 502 Z " /><path fill="rgb(212,36,13)" stroke="rgb(212,36,13)" stroke-width="1" opacity="1" d="M 641.5 507 L 628.5 521 L 641.5 507 Z " /><path fill="rgb(212,36,13)" stroke="rgb(212,36,13)" stroke-width="1" opacity="1" d="M 209.5 517 L 215 517.5 L 209.5 518 L 209.5 517 Z " /><path fill="rgb(212,36,13)" stroke="rgb(212,36,13)" stroke-width="1" opacity="1" d="M 216.5 518 L 220 519.5 L 218.5 520 L 216.5 518 Z " /><path fill="rgb(212,36,13)" stroke="rgb(212,36,13)" stroke-width="1" opacity="1" d="M 204.5 519 L 206 519.5 L 199 525.5 L 191.5 539 L 192 537.5 Q 193.3 530.3 198 526.5 L 197.5 525 L 202.5 521 L 204.5 519 Z " /><path fill="rgb(212,36,13)" stroke="rgb(212,36,13)" stroke-width="1" opacity="1" d="M 221.5 520 L 225.5 525 L 221.5 520 Z " /><path fill="rgb(212,36,13)" stroke="rgb(212,36,13)" stroke-width="1" opacity="1" d="M 101.5 522 L 102.5 524 L 101.5 522 Z " /><path fill="rgb(212,36,13)" stroke="rgb(212,36,13)" stroke-width="1" opacity="1" d="M 227.5 529 L 228 531.5 L 227 531.5 L 227.5 529 Z " /><path fill="rgb(212,36,13)" stroke="rgb(212,36,13)" stroke-width="1" opacity="1" d="M 109.5 531 L 111.5 534 L 109.5 531 Z " /><path fill="rgb(212,36,13)" stroke="rgb(212,36,13)" stroke-width="1" opacity="1" d="M 615.5 532 L 614.5 534 L 615.5 532 Z " /><path fill="rgb(212,36,13)" stroke="rgb(212,36,13)" stroke-width="1" opacity="1" d="M 113.5 535 L 115.5 538 L 113.5 535 Z " /><path fill="rgb(212,36,13)" stroke="rgb(212,36,13)" stroke-width="1" opacity="1" d="M 117.5 539 L 119.5 542 L 117.5 539 Z " /><path fill="rgb(212,36,13)" stroke="rgb(212,36,13)" stroke-width="1" opacity="1" d="M 607.5 539 L 606.5 541 L 607.5 539 Z " /><path fill="rgb(212,36,13)" stroke="rgb(212,36,13)" stroke-width="1" opacity="1" d="M 190.5 540 L 191 542.5 L 189.5 545 L 189 543.5 L 190.5 540 Z " /><path fill="rgb(212,36,13)" stroke="rgb(212,36,13)" stroke-width="1" opacity="1" d="M 385.5 543 L 389 543.5 L 385.5 544 L 385.5 543 Z " /><path fill="rgb(212,36,13)" stroke="rgb(212,36,13)" stroke-width="1" opacity="1" d="M 395.5 544 L 397.5 544 L 403 549.5 L 397.5 545 Q 394.5 545.5 395.5 544 Z " /><path fill="rgb(212,36,13)" stroke="rgb(212,36,13)" stroke-width="1" opacity="1" d="M 380.5 545 L 381 546.5 L 378 548 L 374.5 553 L 376 550.5 L 380.5 545 Z " /><path fill="rgb(212,36,13)" stroke="rgb(212,36,13)" stroke-width="1" opacity="1" d="M 188.5 546 L 189 549.5 L 188 549.5 L 188.5 546 Z " /><path fill="rgb(212,36,13)" stroke="rgb(212,36,13)" stroke-width="1" opacity="1" d="M 221.5 546 L 222 548 L 217.5 550 L 217.5 549 L 221.5 546 Z " /><path fill="rgb(212,36,13)" stroke="rgb(212,36,13)" stroke-width="1" opacity="1" d="M 127.5 548 L 128.5 550 L 127.5 548 Z " /><path fill="rgb(212,36,13)" stroke="rgb(212,36,13)" stroke-width="1" opacity="1" d="M 595.5 549 L 594.5 551 L 595.5 549 Z " /><path fill="rgb(212,36,13)" stroke="rgb(212,36,13)" stroke-width="1" opacity="1" d="M 214.5 551 L 215 553 L 212.5 554 L 212 552 L 214.5 551 Z " /><path fill="rgb(212,36,13)" stroke="rgb(212,36,13)" stroke-width="1" opacity="1" d="M 403.5 551 L 405 554.5 L 404 554.5 L 403.5 551 Z " /><path fill="rgb(212,36,13)" stroke="rgb(212,36,13)" stroke-width="1" opacity="1" d="M 188.5 554 L 189 556.5 L 188 556.5 L 188.5 554 Z " /><path fill="rgb(212,36,13)" stroke="rgb(212,36,13)" stroke-width="1" opacity="1" d="M 373.5 554 L 374 555.5 L 372 556.5 L 373.5 554 Z " /><path fill="rgb(212,36,13)" stroke="rgb(212,36,13)" stroke-width="1" opacity="1" d="M 585.5 557 L 584.5 559 L 585.5 557 Z " /><path fill="rgb(212,36,13)" stroke="rgb(212,36,13)" stroke-width="1" opacity="1" d="M 189.5 558 L 192 559.5 L 190.5 560 L 189.5 558 Z " /><path fill="rgb(212,36,13)" stroke="rgb(212,36,13)" stroke-width="1" opacity="1" d="M 410.5 558 L 411 560.5 L 410 560.5 L 410.5 558 Z " /><path fill="rgb(212,36,13)" stroke="rgb(212,36,13)" stroke-width="1" opacity="1" d="M 365.5 559 L 368 559.5 Q 365.9 562.8 365.5 559 Z " /><path fill="rgb(212,36,13)" stroke="rgb(212,36,13)" stroke-width="1" opacity="1" d="M 193.5 560 L 198 560.5 L 193.5 561 L 193.5 560 Z " /><path fill="rgb(212,36,13)" stroke="rgb(212,36,13)" stroke-width="1" opacity="1" d="M 581.5 560 L 580.5 562 L 581.5 560 Z " /><path fill="rgb(212,36,13)" stroke="rgb(212,36,13)" stroke-width="1" opacity="1" d="M 146.5 562 L 147.5 564 L 146.5 562 Z " /><path fill="rgb(212,36,13)" stroke="rgb(212,36,13)" stroke-width="1" opacity="1" d="M 404.5 562 L 405 564.5 L 397.5 574 L 389.5 579 L 390.5 577 L 400 571 L 400 569 Q 402.7 570.1 402 567.5 L 404.5 562 Z " /><path fill="rgb(212,36,13)" stroke="rgb(212,36,13)" stroke-width="1" opacity="1" d="M 367.5 564 Q 369.8 563.3 369 565.5 L 367.5 564 Z " /><path fill="rgb(212,36,13)" stroke="rgb(212,36,13)" stroke-width="1" opacity="1" d="M 563.5 573 L 562.5 575 L 563.5 573 Z " /><path fill="rgb(212,36,13)" stroke="rgb(212,36,13)" stroke-width="1" opacity="1" d="M 365.5 580 L 367.5 584 L 369 584.5 L 367.5 585 Q 363.8 583.8 365.5 580 Z " /><path fill="rgb(212,36,13)" stroke="rgb(212,36,13)" stroke-width="1" opacity="1" d="M 383.5 581 L 382.5 583 L 381 582.5 L 383.5 581 Z " /><path fill="rgb(212,36,13)" stroke="rgb(212,36,13)" stroke-width="1" opacity="1" d="M 374.5 584 L 378 584.5 L 374.5 585 L 374.5 584 Z " /><path fill="rgb(212,36,13)" stroke="rgb(212,36,13)" stroke-width="1" opacity="1" d="M 316.5 602 L 319 602.5 L 316.5 603 L 316.5 602 Z " /><path fill="rgb(212,36,13)" stroke="rgb(212,36,13)" stroke-width="1" opacity="1" d="M 125.5 610 L 128 610.5 L 125.5 611 L 125.5 610 Z " /><path fill="rgb(212,36,13)" stroke="rgb(212,36,13)" stroke-width="1" opacity="1" d="M 131.5 610 L 134 610.5 L 131.5 611 L 131.5 610 Z " /><path fill="rgb(212,36,13)" stroke="rgb(212,36,13)" stroke-width="1" opacity="1" d="M 122.5 611 L 124 611.5 L 121.5 613 L 122.5 611 Z " /><path fill="rgb(212,36,13)" stroke="rgb(212,36,13)" stroke-width="1" opacity="1" d="M 119.5 613 L 117 616.5 L 112.5 624 L 113 622.5 L 119.5 613 Z " /><path fill="rgb(212,36,13)" stroke="rgb(212,36,13)" stroke-width="1" opacity="1" d="M 282.5 616 L 289 616.5 L 282.5 617 L 282.5 616 Z " /><path fill="rgb(212,36,13)" stroke="rgb(212,36,13)" stroke-width="1" opacity="1" d="M 277.5 618 L 276.5 620 L 277.5 618 Z " /><path fill="rgb(212,36,13)" stroke="rgb(212,36,13)" stroke-width="1" opacity="1" d="M 293.5 618 L 294.5 620 L 293.5 618 Z " /><path fill="rgb(212,36,13)" stroke="rgb(212,36,13)" stroke-width="1" opacity="1" d="M 296.5 620 L 297.5 622 L 296.5 620 Z " /><path fill="rgb(212,36,13)" stroke="rgb(212,36,13)" stroke-width="1" opacity="1" d="M 144.5 621 L 145 624.5 L 144 624.5 L 144.5 621 Z " /><path fill="rgb(212,36,13)" stroke="rgb(212,36,13)" stroke-width="1" opacity="1" d="M 272.5 623 L 272 624.5 L 270.5 627 L 271 625.5 L 272.5 623 Z " /><path fill="rgb(212,36,13)" stroke="rgb(212,36,13)" stroke-width="1" opacity="1" d="M 298.5 623 L 300 625.5 L 299 625.5 L 298.5 623 Z " /><path fill="rgb(212,36,13)" stroke="rgb(212,36,13)" stroke-width="1" opacity="1" d="M 144.5 627 L 145 630.5 L 144 630.5 L 144.5 627 Z " /><path fill="rgb(212,36,13)" stroke="rgb(212,36,13)" stroke-width="1" opacity="1" d="M 269.5 628 L 269 629.5 L 267.5 632 L 268 630.5 L 269.5 628 Z " /><path fill="rgb(212,36,13)" stroke="rgb(212,36,13)" stroke-width="1" opacity="1" d="M 143.5 632 L 142.5 634 L 143.5 632 Z " /><path fill="rgb(212,36,13)" stroke="rgb(212,36,13)" stroke-width="1" opacity="1" d="M 266.5 633 L 267 634.5 L 264.5 639 L 264 637.5 L 266.5 633 Z " /><path fill="rgb(212,36,13)" stroke="rgb(212,36,13)" stroke-width="1" opacity="1" d="M 141.5 635 L 137.5 640 L 141.5 635 Z " /><path fill="rgb(212,36,13)" stroke="rgb(212,36,13)" stroke-width="1" opacity="1" d="M 106.5 636 L 107 638.5 L 106 638.5 L 106.5 636 Z " /><path fill="rgb(212,36,13)" stroke="rgb(212,36,13)" stroke-width="1" opacity="1" d="M 105.5 640 L 106 648.5 L 108.5 651 L 110 651.5 L 108.5 652 L 106 651 Q 103.8 647.6 105.5 640 Z " /><path fill="rgb(212,36,13)" stroke="rgb(212,36,13)" stroke-width="1" opacity="1" d="M 135.5 640 L 133.5 643 L 128.5 646 L 129.5 644 L 135.5 640 Z " /><path fill="rgb(212,36,13)" stroke="rgb(212,36,13)" stroke-width="1" opacity="1" d="M 298.5 640 L 297.5 642 L 298.5 640 Z " /><path fill="rgb(212,36,13)" stroke="rgb(212,36,13)" stroke-width="1" opacity="1" d="M 295.5 643 L 292.5 647 L 295.5 643 Z " /><path fill="rgb(212,36,13)" stroke="rgb(212,36,13)" stroke-width="1" opacity="1" d="M 126.5 646 L 125.5 648 L 126.5 646 Z " /><path fill="rgb(212,36,13)" stroke="rgb(212,36,13)" stroke-width="1" opacity="1" d="M 261.5 647 L 263 656.5 L 262 656.5 Q 259.6 653.2 261.5 647 Z " /><path fill="rgb(212,36,13)" stroke="rgb(212,36,13)" stroke-width="1" opacity="1" d="M 122.5 648 L 121.5 650 L 120 649.5 L 122.5 648 Z " /><path fill="rgb(212,36,13)" stroke="rgb(212,36,13)" stroke-width="1" opacity="1" d="M 289.5 648 L 288.5 650 L 283.5 653 L 284.5 651 L 289.5 648 Z " /><path fill="rgb(212,36,13)" stroke="rgb(212,36,13)" stroke-width="1" opacity="1" d="M 113.5 651 L 116 651.5 L 113.5 652 L 113.5 651 Z " /><path fill="rgb(212,36,13)" stroke="rgb(212,36,13)" stroke-width="1" opacity="1" d="M 270.5 657 L 273 657.5 L 270.5 658 L 270.5 657 Z " /><path fill="rgb(212,36,13)" stroke="rgb(212,36,13)" stroke-width="1" opacity="1" d="M 42.5 696 L 43.5 698 L 42.5 696 Z " /><path fill="rgb(212,36,13)" stroke="rgb(212,36,13)" stroke-width="1" opacity="1" d="M 46.5 701 L 48.5 704 L 46.5 701 Z " /><path fill="rgb(212,36,13)" stroke="rgb(212,36,13)" stroke-width="1" opacity="1" d="M 53.5 708 L 54.5 710 L 53.5 708 Z " /><path fill="rgb(212,36,13)" stroke="rgb(212,36,13)" stroke-width="1" opacity="1" d="M 58.5 712 L 59.5 714 L 58.5 712 Z " /><path fill="rgb(212,36,13)" stroke="rgb(212,36,13)" stroke-width="1" opacity="1" d="M 72.5 720 L 71.5 722 L 72.5 720 Z " /><path fill="rgb(192,0,3)" stroke="rgb(192,0,3)" stroke-width="1" opacity="1" d="M 211.5 93 L 210.5 95 L 211.5 93 Z " /><path fill="rgb(192,0,3)" stroke="rgb(192,0,3)" stroke-width="1" opacity="1" d="M 61.5 373 L 62 382.5 L 61 383.5 L 61 413.5 L 62 414.5 L 62 426.5 L 63 427.5 L 65 446.5 L 68 455.5 L 68 459.5 L 73 472.5 L 73 477.5 Q 70.8 478.8 72 483.5 L 75.5 488 Q 81.3 485.9 80 490.5 Q 91.4 511.8 106 529 Q 108.7 527.9 108 530.5 L 120.5 543 L 122 543 Q 120.9 545.7 123.5 545 Q 139.1 559.9 158.5 571 L 177.5 581 L 208.5 593 L 226.5 598 L 231.5 598 L 248.5 602 L 256.5 602 L 257.5 603 L 267.5 603 L 268.5 604 L 307.5 604 L 308.5 603 L 318.5 603 L 319.5 602 L 327.5 602 L 341.5 599 L 347.5 599 L 352.5 597 L 357.5 597 L 362.5 595 L 375.5 593 L 378.5 591 L 382.5 591 L 420.5 579 L 451.5 567 Q 498.1 546.6 540.5 522 Q 576.3 501.3 608.5 477 L 612 476 Q 610.9 473.3 613.5 474 L 652 444 L 655.5 439 L 659 436.5 L 671 420.5 L 674 414.5 L 677.5 401 L 679 402.5 L 681 412.5 L 682 434.5 Q 679.3 436.3 681 442.5 L 676 458.5 L 662.5 482 L 661 482.5 L 662 483.5 L 658 487.5 L 650 498.5 L 617.5 531 L 577.5 564 L 540.5 590 L 538.5 590 L 519.5 603 L 499.5 613 L 485.5 622 L 428.5 650 L 388.5 667 L 367.5 675 L 364.5 675 L 362.5 677 L 276.5 707 L 219.5 723 L 183.5 730 L 156.5 732 L 155.5 733 L 153.5 733 L 118.5 733 L 117.5 732 L 105.5 732 L 104.5 731 L 92.5 730 Q 67.2 722.8 51 706.5 L 49 703.5 Q 35.4 691.1 29 671.5 L 22 635.5 L 20 591.5 L 21 590.5 L 21 569.5 L 22 568.5 L 23 548.5 L 24 547.5 L 24 540.5 L 31 504.5 L 31 499.5 L 33 494.5 L 33 489.5 L 35 484.5 L 36 475.5 L 47 430.5 L 47 426.5 L 61.5 373 Z M 126 610 L 120 613 L 114 620 L 105 641 Q 104 648 106 651 L 109 652 Q 117 653 122 650 L 138 640 L 145 631 Q 147 620 142 616 L 134 610 L 126 610 Z M 283 616 L 278 618 Q 265 629 261 648 Q 260 654 262 657 L 265 658 L 276 657 L 293 647 L 301 637 Q 303 626 298 622 Q 293 616 283 616 Z " /></svg>